%TF.GenerationSoftware,KiCad,Pcbnew,10.0.5*%
%TF.CreationDate,2026-07-26T13:49:40+08:00*%
%TF.ProjectId,im-syau,696d2d73-7961-4752-9e6b-696361645f70,rev?*%
%TF.SameCoordinates,Original*%
%TF.FileFunction,Soldermask,Top*%
%TF.FilePolarity,Negative*%
%FSLAX46Y46*%
G04 Gerber Fmt 4.6, Leading zero omitted, Abs format (unit mm)*
G04 Created by KiCad (PCBNEW 10.0.5) date 2026-07-26 13:49:40*
%MOMM*%
%LPD*%
G01*
G04 APERTURE LIST*
G04 Aperture macros list*
%AMRoundRect*
0 Rectangle with rounded corners*
0 $1 Rounding radius*
0 $2 $3 $4 $5 $6 $7 $8 $9 X,Y pos of 4 corners*
0 Add a 4 corners polygon primitive as box body*
4,1,4,$2,$3,$4,$5,$6,$7,$8,$9,$2,$3,0*
0 Add four circle primitives for the rounded corners*
1,1,$1+$1,$2,$3*
1,1,$1+$1,$4,$5*
1,1,$1+$1,$6,$7*
1,1,$1+$1,$8,$9*
0 Add four rect primitives between the rounded corners*
20,1,$1+$1,$2,$3,$4,$5,0*
20,1,$1+$1,$4,$5,$6,$7,0*
20,1,$1+$1,$6,$7,$8,$9,0*
20,1,$1+$1,$8,$9,$2,$3,0*%
G04 Aperture macros list end*
%ADD10RoundRect,0.250000X-0.262500X-0.450000X0.262500X-0.450000X0.262500X0.450000X-0.262500X0.450000X0*%
%ADD11RoundRect,0.150000X-0.825000X-0.150000X0.825000X-0.150000X0.825000X0.150000X-0.825000X0.150000X0*%
%ADD12R,2.410000X3.300000*%
%ADD13RoundRect,0.250000X0.650000X-1.000000X0.650000X1.000000X-0.650000X1.000000X-0.650000X-1.000000X0*%
%ADD14C,0.700000*%
%ADD15O,0.900000X2.400000*%
%ADD16O,0.900000X1.700000*%
%ADD17RoundRect,0.250000X0.450000X-0.262500X0.450000X0.262500X-0.450000X0.262500X-0.450000X-0.262500X0*%
%ADD18RoundRect,0.250000X-0.970000X-0.310000X0.970000X-0.310000X0.970000X0.310000X-0.970000X0.310000X0*%
%ADD19RoundRect,0.250000X-0.350000X-0.625000X0.350000X-0.625000X0.350000X0.625000X-0.350000X0.625000X0*%
%ADD20O,1.200000X1.750000*%
%ADD21RoundRect,0.243750X-0.243750X-0.456250X0.243750X-0.456250X0.243750X0.456250X-0.243750X0.456250X0*%
%ADD22RoundRect,0.250000X-0.250000X-0.475000X0.250000X-0.475000X0.250000X0.475000X-0.250000X0.475000X0*%
%ADD23R,1.700000X1.700000*%
%ADD24C,1.700000*%
%ADD25RoundRect,0.250000X-0.375000X-0.625000X0.375000X-0.625000X0.375000X0.625000X-0.375000X0.625000X0*%
G04 APERTURE END LIST*
D10*
%TO.C,R3*%
X39087500Y-51000000D03*
X40912500Y-51000000D03*
%TD*%
D11*
%TO.C,U1*%
X42525000Y-37095000D03*
X42525000Y-38365000D03*
X42525000Y-39635000D03*
X42525000Y-40905000D03*
X47475000Y-40905000D03*
X47475000Y-39635000D03*
X47475000Y-38365000D03*
X47475000Y-37095000D03*
D12*
X45000000Y-39000000D03*
%TD*%
D13*
%TO.C,D3*%
X36360000Y-59000000D03*
X36360000Y-55000000D03*
%TD*%
D14*
%TO.C,J1*%
X45000000Y-11500000D03*
X45850000Y-11500000D03*
X46700000Y-11500000D03*
X47550000Y-11500000D03*
X48400000Y-11500000D03*
X49250000Y-11500000D03*
X50100000Y-11500000D03*
X50950000Y-11500000D03*
X50950000Y-12850000D03*
X50100000Y-12850000D03*
X49250000Y-12850000D03*
X48400000Y-12850000D03*
X47550000Y-12850000D03*
X46700000Y-12850000D03*
X45850000Y-12850000D03*
X45000000Y-12850000D03*
D15*
X43650000Y-12480000D03*
D16*
X43650000Y-15860000D03*
D15*
X52300000Y-12480000D03*
D16*
X52300000Y-15860000D03*
%TD*%
D17*
%TO.C,R6*%
X48000000Y-32912500D03*
X48000000Y-31087500D03*
%TD*%
D18*
%TO.C,SW1*%
X35695000Y-26500000D03*
X44305000Y-26500000D03*
%TD*%
D19*
%TO.C,J2*%
X45000000Y-66500000D03*
D20*
X47000000Y-66500000D03*
%TD*%
D21*
%TO.C,D1*%
X39062500Y-56000000D03*
X40937500Y-56000000D03*
%TD*%
D17*
%TO.C,R5*%
X48000000Y-56912500D03*
X48000000Y-55087500D03*
%TD*%
D21*
%TO.C,D4*%
X39062500Y-32000000D03*
X40937500Y-32000000D03*
%TD*%
D10*
%TO.C,R2*%
X47087500Y-20500000D03*
X48912500Y-20500000D03*
%TD*%
D13*
%TO.C,D2*%
X36360000Y-52000000D03*
X36360000Y-48000000D03*
%TD*%
D22*
%TO.C,C1*%
X39050000Y-46000000D03*
X40950000Y-46000000D03*
%TD*%
%TO.C,C2*%
X47050000Y-46000000D03*
X48950000Y-46000000D03*
%TD*%
D23*
%TO.C,J4*%
X31360000Y-6000000D03*
D24*
X31360000Y-8540000D03*
X31360000Y-11080000D03*
X31360000Y-13620000D03*
X31360000Y-16160000D03*
X31360000Y-18700000D03*
X31360000Y-21240000D03*
X31360000Y-23780000D03*
X31360000Y-26320000D03*
X31360000Y-28860000D03*
X31360000Y-31400000D03*
X31360000Y-33940000D03*
X31360000Y-36480000D03*
X31360000Y-39020000D03*
X31360000Y-41560000D03*
X31360000Y-44100000D03*
X31360000Y-46640000D03*
X31360000Y-49180000D03*
X31360000Y-51720000D03*
X31360000Y-54260000D03*
X31360000Y-56800000D03*
X31360000Y-59340000D03*
%TD*%
D25*
%TO.C,F1*%
X43600000Y-61000000D03*
X46400000Y-61000000D03*
%TD*%
D23*
%TO.C,J3*%
X8500000Y-6000000D03*
D24*
X8500000Y-8540000D03*
X8500000Y-11080000D03*
X8500000Y-13620000D03*
X8500000Y-16160000D03*
X8500000Y-18700000D03*
X8500000Y-21240000D03*
X8500000Y-23780000D03*
X8500000Y-26320000D03*
X8500000Y-28860000D03*
X8500000Y-31400000D03*
X8500000Y-33940000D03*
X8500000Y-36480000D03*
X8500000Y-39020000D03*
X8500000Y-41560000D03*
X8500000Y-44100000D03*
X8500000Y-46640000D03*
X8500000Y-49180000D03*
X8500000Y-51720000D03*
X8500000Y-54260000D03*
X8500000Y-56800000D03*
X8500000Y-59340000D03*
%TD*%
D10*
%TO.C,R1*%
X39087500Y-20500000D03*
X40912500Y-20500000D03*
%TD*%
D18*
%TO.C,SW2*%
X43695000Y-26500000D03*
X52305000Y-26500000D03*
%TD*%
D10*
%TO.C,R4*%
X47087500Y-51000000D03*
X48912500Y-51000000D03*
%TD*%
M02*
