%TF.GenerationSoftware,KiCad,Pcbnew,10.0.5*%
%TF.CreationDate,2026-07-26T13:49:40+08:00*%
%TF.ProjectId,im-syau,696d2d73-7961-4752-9e6b-696361645f70,rev?*%
%TF.SameCoordinates,Original*%
%TF.FileFunction,Soldermask,Bot*%
%TF.FilePolarity,Negative*%
%FSLAX46Y46*%
G04 Gerber Fmt 4.6, Leading zero omitted, Abs format (unit mm)*
G04 Created by KiCad (PCBNEW 10.0.5) date 2026-07-26 13:49:40*
%MOMM*%
%LPD*%
G01*
G04 APERTURE LIST*
G04 Aperture macros list*
%AMRoundRect*
0 Rectangle with rounded corners*
0 $1 Rounding radius*
0 $2 $3 $4 $5 $6 $7 $8 $9 X,Y pos of 4 corners*
0 Add a 4 corners polygon primitive as box body*
4,1,4,$2,$3,$4,$5,$6,$7,$8,$9,$2,$3,0*
0 Add four circle primitives for the rounded corners*
1,1,$1+$1,$2,$3*
1,1,$1+$1,$4,$5*
1,1,$1+$1,$6,$7*
1,1,$1+$1,$8,$9*
0 Add four rect primitives between the rounded corners*
20,1,$1+$1,$2,$3,$4,$5,0*
20,1,$1+$1,$4,$5,$6,$7,0*
20,1,$1+$1,$6,$7,$8,$9,0*
20,1,$1+$1,$8,$9,$2,$3,0*%
G04 Aperture macros list end*
%ADD10C,0.700000*%
%ADD11O,0.900000X2.400000*%
%ADD12O,0.900000X1.700000*%
%ADD13RoundRect,0.250000X-0.350000X-0.625000X0.350000X-0.625000X0.350000X0.625000X-0.350000X0.625000X0*%
%ADD14O,1.200000X1.750000*%
%ADD15R,1.700000X1.700000*%
%ADD16C,1.700000*%
G04 APERTURE END LIST*
D10*
%TO.C,J1*%
X45000000Y-11500000D03*
X45850000Y-11500000D03*
X46700000Y-11500000D03*
X47550000Y-11500000D03*
X48400000Y-11500000D03*
X49250000Y-11500000D03*
X50100000Y-11500000D03*
X50950000Y-11500000D03*
X50950000Y-12850000D03*
X50100000Y-12850000D03*
X49250000Y-12850000D03*
X48400000Y-12850000D03*
X47550000Y-12850000D03*
X46700000Y-12850000D03*
X45850000Y-12850000D03*
X45000000Y-12850000D03*
D11*
X43650000Y-12480000D03*
D12*
X43650000Y-15860000D03*
D11*
X52300000Y-12480000D03*
D12*
X52300000Y-15860000D03*
%TD*%
D13*
%TO.C,J2*%
X45000000Y-66500000D03*
D14*
X47000000Y-66500000D03*
%TD*%
D15*
%TO.C,J4*%
X31360000Y-6000000D03*
D16*
X31360000Y-8540000D03*
X31360000Y-11080000D03*
X31360000Y-13620000D03*
X31360000Y-16160000D03*
X31360000Y-18700000D03*
X31360000Y-21240000D03*
X31360000Y-23780000D03*
X31360000Y-26320000D03*
X31360000Y-28860000D03*
X31360000Y-31400000D03*
X31360000Y-33940000D03*
X31360000Y-36480000D03*
X31360000Y-39020000D03*
X31360000Y-41560000D03*
X31360000Y-44100000D03*
X31360000Y-46640000D03*
X31360000Y-49180000D03*
X31360000Y-51720000D03*
X31360000Y-54260000D03*
X31360000Y-56800000D03*
X31360000Y-59340000D03*
%TD*%
D15*
%TO.C,J3*%
X8500000Y-6000000D03*
D16*
X8500000Y-8540000D03*
X8500000Y-11080000D03*
X8500000Y-13620000D03*
X8500000Y-16160000D03*
X8500000Y-18700000D03*
X8500000Y-21240000D03*
X8500000Y-23780000D03*
X8500000Y-26320000D03*
X8500000Y-28860000D03*
X8500000Y-31400000D03*
X8500000Y-33940000D03*
X8500000Y-36480000D03*
X8500000Y-39020000D03*
X8500000Y-41560000D03*
X8500000Y-44100000D03*
X8500000Y-46640000D03*
X8500000Y-49180000D03*
X8500000Y-51720000D03*
X8500000Y-54260000D03*
X8500000Y-56800000D03*
X8500000Y-59340000D03*
%TD*%
M02*
