M48
; DRILL file KiCad 10.0.5 date 2026-07-26T13:49:41
; FORMAT={-:-/ absolute / metric / decimal}
; #@! TF.CreationDate,2026-07-26T13:49:41+08:00
; #@! TF.GenerationSoftware,Kicad,Pcbnew,10.0.5
; #@! TF.FileFunction,MixedPlating,1,4
FMAT,2
METRIC
; #@! TA.AperFunction,Plated,PTH,ComponentDrill
T1C0.200
; #@! TA.AperFunction,Plated,PTH,ViaDrill
T2C0.300
; #@! TA.AperFunction,Plated,PTH,ComponentDrill
T3C0.400
; #@! TA.AperFunction,Plated,PTH,ComponentDrill
T4C0.600
; #@! TA.AperFunction,Plated,PTH,ComponentDrill
T5C0.750
; #@! TA.AperFunction,Plated,PTH,ComponentDrill
T6C1.000
%
G90
G05
T1
X44.3Y-37.8
X44.3Y-39.0
X44.3Y-40.2
X45.7Y-37.8
X45.7Y-39.0
X45.7Y-40.2
T2
X9.78Y-32.67
X37.559Y-41.93
X43.264Y-35.655
X44.017Y-51.635
X44.027Y-42.309
X48.97Y-35.655
X51.822Y-27.823
T3
X45.0Y-11.5
X45.0Y-12.85
X45.85Y-11.5
X45.85Y-12.85
X46.7Y-11.5
X46.7Y-12.85
X47.55Y-11.5
X47.55Y-12.85
X48.4Y-11.5
X48.4Y-12.85
X49.25Y-11.5
X49.25Y-12.85
X50.1Y-11.5
X50.1Y-12.85
X50.95Y-11.5
X50.95Y-12.85
T5
X45.0Y-66.5
X47.0Y-66.5
T6
X8.5Y-6.0
X8.5Y-8.54
X8.5Y-11.08
X8.5Y-13.62
X8.5Y-16.16
X8.5Y-18.7
X8.5Y-21.24
X8.5Y-23.78
X8.5Y-26.32
X8.5Y-28.86
X8.5Y-31.4
X8.5Y-33.94
X8.5Y-36.48
X8.5Y-39.02
X8.5Y-41.56
X8.5Y-44.1
X8.5Y-46.64
X8.5Y-49.18
X8.5Y-51.72
X8.5Y-54.26
X8.5Y-56.8
X8.5Y-59.34
X31.36Y-6.0
X31.36Y-8.54
X31.36Y-11.08
X31.36Y-13.62
X31.36Y-16.16
X31.36Y-18.7
X31.36Y-21.24
X31.36Y-23.78
X31.36Y-26.32
X31.36Y-28.86
X31.36Y-31.4
X31.36Y-33.94
X31.36Y-36.48
X31.36Y-39.02
X31.36Y-41.56
X31.36Y-44.1
X31.36Y-46.64
X31.36Y-49.18
X31.36Y-51.72
X31.36Y-54.26
X31.36Y-56.8
X31.36Y-59.34
T4
X43.65Y-11.73G85X43.65Y-13.23
G05
X43.65Y-15.46G85X43.65Y-16.26
G05
X52.3Y-11.73G85X52.3Y-13.23
G05
X52.3Y-15.46G85X52.3Y-16.26
G05
M30
