%TF.GenerationSoftware,KiCad,Pcbnew,10.0.5*%
%TF.CreationDate,2026-07-26T13:49:40+08:00*%
%TF.ProjectId,im-syau,696d2d73-7961-4752-9e6b-696361645f70,rev?*%
%TF.SameCoordinates,Original*%
%TF.FileFunction,Copper,L3,Inr*%
%TF.FilePolarity,Positive*%
%FSLAX46Y46*%
G04 Gerber Fmt 4.6, Leading zero omitted, Abs format (unit mm)*
G04 Created by KiCad (PCBNEW 10.0.5) date 2026-07-26 13:49:40*
%MOMM*%
%LPD*%
G01*
G04 APERTURE LIST*
G04 Aperture macros list*
%AMRoundRect*
0 Rectangle with rounded corners*
0 $1 Rounding radius*
0 $2 $3 $4 $5 $6 $7 $8 $9 X,Y pos of 4 corners*
0 Add a 4 corners polygon primitive as box body*
4,1,4,$2,$3,$4,$5,$6,$7,$8,$9,$2,$3,0*
0 Add four circle primitives for the rounded corners*
1,1,$1+$1,$2,$3*
1,1,$1+$1,$4,$5*
1,1,$1+$1,$6,$7*
1,1,$1+$1,$8,$9*
0 Add four rect primitives between the rounded corners*
20,1,$1+$1,$2,$3,$4,$5,0*
20,1,$1+$1,$4,$5,$6,$7,0*
20,1,$1+$1,$6,$7,$8,$9,0*
20,1,$1+$1,$8,$9,$2,$3,0*%
G04 Aperture macros list end*
%TA.AperFunction,HeatsinkPad*%
%ADD10C,0.500000*%
%TD*%
%TA.AperFunction,ComponentPad*%
%ADD11C,0.700000*%
%TD*%
%TA.AperFunction,ComponentPad*%
%ADD12O,0.900000X2.400000*%
%TD*%
%TA.AperFunction,ComponentPad*%
%ADD13O,0.900000X1.700000*%
%TD*%
%TA.AperFunction,ComponentPad*%
%ADD14RoundRect,0.250000X-0.350000X-0.625000X0.350000X-0.625000X0.350000X0.625000X-0.350000X0.625000X0*%
%TD*%
%TA.AperFunction,ComponentPad*%
%ADD15O,1.200000X1.750000*%
%TD*%
%TA.AperFunction,ComponentPad*%
%ADD16R,1.700000X1.700000*%
%TD*%
%TA.AperFunction,ComponentPad*%
%ADD17C,1.700000*%
%TD*%
%TA.AperFunction,ViaPad*%
%ADD18C,0.600000*%
%TD*%
%TA.AperFunction,Conductor*%
%ADD19C,0.200000*%
%TD*%
G04 APERTURE END LIST*
D10*
%TO.N,GND*%
%TO.C,U1*%
X44300000Y-37800000D03*
X44300000Y-39000000D03*
X44300000Y-40200000D03*
X45700000Y-37800000D03*
X45700000Y-39000000D03*
X45700000Y-40200000D03*
%TD*%
D11*
%TO.N,GND*%
%TO.C,J1*%
X45000000Y-11500000D03*
%TO.N,VUSB*%
X45850000Y-11500000D03*
%TO.N,CC1*%
X46700000Y-11500000D03*
%TO.N,unconnected-(J1-D+-PadA6)*%
X47550000Y-11500000D03*
%TO.N,unconnected-(J1-D--PadA7)*%
X48400000Y-11500000D03*
%TO.N,unconnected-(J1-SBU1-PadA8)*%
X49250000Y-11500000D03*
%TO.N,VUSB*%
X50100000Y-11500000D03*
%TO.N,GND*%
X50950000Y-11500000D03*
X50950000Y-12850000D03*
%TO.N,VUSB*%
X50100000Y-12850000D03*
%TO.N,CC2*%
X49250000Y-12850000D03*
%TO.N,unconnected-(J1-D+-PadB6)*%
X48400000Y-12850000D03*
%TO.N,unconnected-(J1-D--PadB7)*%
X47550000Y-12850000D03*
%TO.N,unconnected-(J1-SBU2-PadB8)*%
X46700000Y-12850000D03*
%TO.N,VUSB*%
X45850000Y-12850000D03*
%TO.N,GND*%
X45000000Y-12850000D03*
D12*
X43650000Y-12480000D03*
D13*
X43650000Y-15860000D03*
D12*
X52300000Y-12480000D03*
D13*
X52300000Y-15860000D03*
%TD*%
D14*
%TO.N,VBAT_RAW*%
%TO.C,J2*%
X45000000Y-66500000D03*
D15*
%TO.N,GND*%
X47000000Y-66500000D03*
%TD*%
D16*
%TO.N,unconnected-(J4-Pin_1-Pad1)*%
%TO.C,J4*%
X31360000Y-6000000D03*
D17*
%TO.N,unconnected-(J4-Pin_2-Pad2)*%
X31360000Y-8540000D03*
%TO.N,unconnected-(J4-Pin_3-Pad3)*%
X31360000Y-11080000D03*
%TO.N,unconnected-(J4-Pin_4-Pad4)*%
X31360000Y-13620000D03*
%TO.N,unconnected-(J4-Pin_5-Pad5)*%
X31360000Y-16160000D03*
%TO.N,unconnected-(J4-Pin_6-Pad6)*%
X31360000Y-18700000D03*
%TO.N,unconnected-(J4-Pin_7-Pad7)*%
X31360000Y-21240000D03*
%TO.N,unconnected-(J4-Pin_8-Pad8)*%
X31360000Y-23780000D03*
%TO.N,unconnected-(J4-Pin_9-Pad9)*%
X31360000Y-26320000D03*
%TO.N,unconnected-(J4-Pin_10-Pad10)*%
X31360000Y-28860000D03*
%TO.N,unconnected-(J4-Pin_11-Pad11)*%
X31360000Y-31400000D03*
%TO.N,unconnected-(J4-Pin_12-Pad12)*%
X31360000Y-33940000D03*
%TO.N,unconnected-(J4-Pin_13-Pad13)*%
X31360000Y-36480000D03*
%TO.N,unconnected-(J4-Pin_14-Pad14)*%
X31360000Y-39020000D03*
%TO.N,unconnected-(J4-Pin_15-Pad15)*%
X31360000Y-41560000D03*
%TO.N,unconnected-(J4-Pin_16-Pad16)*%
X31360000Y-44100000D03*
%TO.N,unconnected-(J4-Pin_17-Pad17)*%
X31360000Y-46640000D03*
%TO.N,unconnected-(J4-Pin_18-Pad18)*%
X31360000Y-49180000D03*
%TO.N,unconnected-(J4-Pin_19-Pad19)*%
X31360000Y-51720000D03*
%TO.N,unconnected-(J4-Pin_20-Pad20)*%
X31360000Y-54260000D03*
%TO.N,GND*%
X31360000Y-56800000D03*
X31360000Y-59340000D03*
%TD*%
D16*
%TO.N,unconnected-(J3-Pin_1-Pad1)*%
%TO.C,J3*%
X8500000Y-6000000D03*
D17*
%TO.N,unconnected-(J3-Pin_2-Pad2)*%
X8500000Y-8540000D03*
%TO.N,unconnected-(J3-Pin_3-Pad3)*%
X8500000Y-11080000D03*
%TO.N,unconnected-(J3-Pin_4-Pad4)*%
X8500000Y-13620000D03*
%TO.N,unconnected-(J3-Pin_5-Pad5)*%
X8500000Y-16160000D03*
%TO.N,unconnected-(J3-Pin_6-Pad6)*%
X8500000Y-18700000D03*
%TO.N,unconnected-(J3-Pin_7-Pad7)*%
X8500000Y-21240000D03*
%TO.N,unconnected-(J3-Pin_8-Pad8)*%
X8500000Y-23780000D03*
%TO.N,unconnected-(J3-Pin_9-Pad9)*%
X8500000Y-26320000D03*
%TO.N,unconnected-(J3-Pin_10-Pad10)*%
X8500000Y-28860000D03*
%TO.N,unconnected-(J3-Pin_11-Pad11)*%
X8500000Y-31400000D03*
%TO.N,unconnected-(J3-Pin_12-Pad12)*%
X8500000Y-33940000D03*
%TO.N,unconnected-(J3-Pin_13-Pad13)*%
X8500000Y-36480000D03*
%TO.N,unconnected-(J3-Pin_14-Pad14)*%
X8500000Y-39020000D03*
%TO.N,unconnected-(J3-Pin_15-Pad15)*%
X8500000Y-41560000D03*
%TO.N,unconnected-(J3-Pin_16-Pad16)*%
X8500000Y-44100000D03*
%TO.N,unconnected-(J3-Pin_17-Pad17)*%
X8500000Y-46640000D03*
%TO.N,unconnected-(J3-Pin_18-Pad18)*%
X8500000Y-49180000D03*
%TO.N,unconnected-(J3-Pin_19-Pad19)*%
X8500000Y-51720000D03*
%TO.N,unconnected-(J3-Pin_20-Pad20)*%
X8500000Y-54260000D03*
%TO.N,DEV_5V*%
X8500000Y-56800000D03*
%TO.N,GND*%
X8500000Y-59340000D03*
%TD*%
D18*
%TO.N,TEMP*%
X44017500Y-51635100D03*
X43264200Y-35655400D03*
%TO.N,VUSB*%
X44027400Y-42308900D03*
X48969600Y-35655400D03*
X37558800Y-41929600D03*
%TO.N,DEV_5V*%
X51822300Y-27823400D03*
X9779600Y-32670000D03*
%TD*%
%TO.N,TEMP*%
D19*
X43264200Y-50881800D02*
X43264200Y-35655400D01*
X44017500Y-51635100D02*
X43264200Y-50881800D01*
%TO.N,VUSB*%
X45850000Y-24672900D02*
X45850000Y-24714200D01*
X45850000Y-24714200D02*
X45850000Y-25522800D01*
X45850000Y-12850000D02*
X45850000Y-11500000D01*
X45000100Y-41336200D02*
X44027400Y-42308900D01*
X45850000Y-12850000D02*
X45850000Y-24672900D01*
X47994700Y-34680500D02*
X45000100Y-37675100D01*
X45000100Y-37675100D02*
X45000100Y-41336200D01*
X45850000Y-32535800D02*
X47994700Y-34680500D01*
X50100000Y-11500000D02*
X50100000Y-12850000D01*
X47994700Y-34680500D02*
X48969600Y-35655400D01*
X45850000Y-25522800D02*
X45850000Y-32535800D01*
%TO.N,DEV_5V*%
X9779600Y-55520400D02*
X9779600Y-32670000D01*
X8500000Y-56800000D02*
X9779600Y-55520400D01*
%TD*%
%TA.AperFunction,Conductor*%
%TO.N,GND*%
G36*
X55458691Y-2519407D02*
G01*
X55494655Y-2568907D01*
X55499500Y-2599500D01*
X55499500Y-69400500D01*
X55480593Y-69458691D01*
X55431093Y-69494655D01*
X55400500Y-69499500D01*
X2599500Y-69499500D01*
X2541309Y-69480593D01*
X2505345Y-69431093D01*
X2500500Y-69400500D01*
X2500500Y-65827129D01*
X44149500Y-65827129D01*
X44149500Y-67172866D01*
X44149501Y-67172870D01*
X44155908Y-67232480D01*
X44155909Y-67232485D01*
X44206202Y-67367329D01*
X44292450Y-67482541D01*
X44292454Y-67482546D01*
X44292457Y-67482548D01*
X44292458Y-67482549D01*
X44407670Y-67568797D01*
X44542511Y-67619089D01*
X44542512Y-67619089D01*
X44542517Y-67619091D01*
X44602127Y-67625500D01*
X45397872Y-67625499D01*
X45457483Y-67619091D01*
X45524907Y-67593943D01*
X45592329Y-67568797D01*
X45592329Y-67568796D01*
X45592331Y-67568796D01*
X45707546Y-67482546D01*
X45793796Y-67367331D01*
X45844091Y-67232483D01*
X45850500Y-67172873D01*
X45850499Y-65827128D01*
X45844091Y-65767517D01*
X45844089Y-65767511D01*
X45793797Y-65632670D01*
X45707549Y-65517458D01*
X45707548Y-65517457D01*
X45707546Y-65517454D01*
X45707541Y-65517450D01*
X45592329Y-65431202D01*
X45457488Y-65380910D01*
X45457483Y-65380909D01*
X45457481Y-65380908D01*
X45457477Y-65380908D01*
X45426249Y-65377550D01*
X45397873Y-65374500D01*
X45397870Y-65374500D01*
X44602133Y-65374500D01*
X44602129Y-65374500D01*
X44602128Y-65374501D01*
X44594949Y-65375272D01*
X44542519Y-65380908D01*
X44542514Y-65380909D01*
X44407670Y-65431202D01*
X44292458Y-65517450D01*
X44292450Y-65517458D01*
X44206202Y-65632670D01*
X44155910Y-65767511D01*
X44155908Y-65767522D01*
X44149500Y-65827129D01*
X2500500Y-65827129D01*
X2500500Y-31313385D01*
X7399500Y-31313385D01*
X7399500Y-31486614D01*
X7426597Y-31657702D01*
X7426598Y-31657706D01*
X7480123Y-31822438D01*
X7480125Y-31822441D01*
X7480126Y-31822444D01*
X7480127Y-31822445D01*
X7558768Y-31976788D01*
X7660586Y-32116928D01*
X7783072Y-32239414D01*
X7923212Y-32341232D01*
X8077555Y-32419873D01*
X8077557Y-32419873D01*
X8077558Y-32419874D01*
X8077561Y-32419876D01*
X8242293Y-32473401D01*
X8242297Y-32473402D01*
X8413386Y-32500500D01*
X8413389Y-32500500D01*
X8586614Y-32500500D01*
X8757702Y-32473402D01*
X8757706Y-32473401D01*
X8922438Y-32419876D01*
X8922440Y-32419874D01*
X8922445Y-32419873D01*
X9076788Y-32341232D01*
X9142618Y-32293403D01*
X9200807Y-32274496D01*
X9258998Y-32293403D01*
X9294962Y-32342902D01*
X9294963Y-32404088D01*
X9286545Y-32422995D01*
X9266617Y-32457511D01*
X9229100Y-32597525D01*
X9229100Y-32742474D01*
X9266616Y-32882486D01*
X9286545Y-32917003D01*
X9299266Y-32976852D01*
X9274379Y-33032747D01*
X9221391Y-33063340D01*
X9160541Y-33056944D01*
X9142617Y-33046596D01*
X9076786Y-32998766D01*
X8922441Y-32920125D01*
X8922438Y-32920123D01*
X8757706Y-32866598D01*
X8757702Y-32866597D01*
X8586614Y-32839500D01*
X8586611Y-32839500D01*
X8413389Y-32839500D01*
X8413386Y-32839500D01*
X8242297Y-32866597D01*
X8242293Y-32866598D01*
X8077561Y-32920123D01*
X8077558Y-32920125D01*
X7923214Y-32998766D01*
X7783073Y-33100585D01*
X7660585Y-33223073D01*
X7558766Y-33363214D01*
X7480125Y-33517558D01*
X7480123Y-33517561D01*
X7426598Y-33682293D01*
X7426597Y-33682297D01*
X7399500Y-33853385D01*
X7399500Y-34026614D01*
X7426597Y-34197702D01*
X7426598Y-34197706D01*
X7480123Y-34362438D01*
X7480125Y-34362441D01*
X7480126Y-34362444D01*
X7480127Y-34362445D01*
X7558768Y-34516788D01*
X7660586Y-34656928D01*
X7783072Y-34779414D01*
X7923212Y-34881232D01*
X8077555Y-34959873D01*
X8077557Y-34959873D01*
X8077558Y-34959874D01*
X8077561Y-34959876D01*
X8242293Y-35013401D01*
X8242297Y-35013402D01*
X8413386Y-35040500D01*
X8413389Y-35040500D01*
X8586614Y-35040500D01*
X8757702Y-35013402D01*
X8757706Y-35013401D01*
X8922438Y-34959876D01*
X8922440Y-34959874D01*
X8922445Y-34959873D01*
X9076788Y-34881232D01*
X9216928Y-34779414D01*
X9260098Y-34736243D01*
X9314613Y-34708468D01*
X9375045Y-34718039D01*
X9418310Y-34761304D01*
X9429100Y-34806249D01*
X9429100Y-35613751D01*
X9410193Y-35671942D01*
X9360693Y-35707906D01*
X9299507Y-35707906D01*
X9260098Y-35683756D01*
X9216928Y-35640586D01*
X9076788Y-35538768D01*
X9076787Y-35538767D01*
X9076785Y-35538766D01*
X8922441Y-35460125D01*
X8922438Y-35460123D01*
X8757706Y-35406598D01*
X8757702Y-35406597D01*
X8586614Y-35379500D01*
X8586611Y-35379500D01*
X8413389Y-35379500D01*
X8413386Y-35379500D01*
X8242297Y-35406597D01*
X8242293Y-35406598D01*
X8077561Y-35460123D01*
X8077558Y-35460125D01*
X7923214Y-35538766D01*
X7783073Y-35640585D01*
X7660585Y-35763073D01*
X7558766Y-35903214D01*
X7480125Y-36057558D01*
X7480123Y-36057561D01*
X7426598Y-36222293D01*
X7426597Y-36222297D01*
X7399500Y-36393385D01*
X7399500Y-36566614D01*
X7426597Y-36737702D01*
X7426598Y-36737706D01*
X7480123Y-36902438D01*
X7480125Y-36902441D01*
X7480126Y-36902444D01*
X7480127Y-36902445D01*
X7558768Y-37056788D01*
X7660586Y-37196928D01*
X7783072Y-37319414D01*
X7923212Y-37421232D01*
X8077555Y-37499873D01*
X8077557Y-37499873D01*
X8077558Y-37499874D01*
X8077561Y-37499876D01*
X8242293Y-37553401D01*
X8242297Y-37553402D01*
X8413386Y-37580500D01*
X8413389Y-37580500D01*
X8586614Y-37580500D01*
X8757702Y-37553402D01*
X8757706Y-37553401D01*
X8922438Y-37499876D01*
X8922440Y-37499874D01*
X8922445Y-37499873D01*
X9076788Y-37421232D01*
X9216928Y-37319414D01*
X9260098Y-37276243D01*
X9314613Y-37248468D01*
X9375045Y-37258039D01*
X9418310Y-37301304D01*
X9429100Y-37346249D01*
X9429100Y-38153751D01*
X9410193Y-38211942D01*
X9360693Y-38247906D01*
X9299507Y-38247906D01*
X9260098Y-38223756D01*
X9216928Y-38180586D01*
X9076788Y-38078768D01*
X9076787Y-38078767D01*
X9076785Y-38078766D01*
X8922441Y-38000125D01*
X8922438Y-38000123D01*
X8757706Y-37946598D01*
X8757702Y-37946597D01*
X8586614Y-37919500D01*
X8586611Y-37919500D01*
X8413389Y-37919500D01*
X8413386Y-37919500D01*
X8242297Y-37946597D01*
X8242293Y-37946598D01*
X8077561Y-38000123D01*
X8077558Y-38000125D01*
X7923214Y-38078766D01*
X7783073Y-38180585D01*
X7660585Y-38303073D01*
X7558766Y-38443214D01*
X7480125Y-38597558D01*
X7480123Y-38597561D01*
X7426598Y-38762293D01*
X7426597Y-38762297D01*
X7399500Y-38933385D01*
X7399500Y-39106614D01*
X7426597Y-39277702D01*
X7426598Y-39277706D01*
X7480123Y-39442438D01*
X7480125Y-39442441D01*
X7480126Y-39442444D01*
X7480127Y-39442445D01*
X7558768Y-39596788D01*
X7660586Y-39736928D01*
X7783072Y-39859414D01*
X7923212Y-39961232D01*
X8077555Y-40039873D01*
X8077557Y-40039873D01*
X8077558Y-40039874D01*
X8077561Y-40039876D01*
X8242293Y-40093401D01*
X8242297Y-40093402D01*
X8413386Y-40120500D01*
X8413389Y-40120500D01*
X8586614Y-40120500D01*
X8757702Y-40093402D01*
X8757706Y-40093401D01*
X8922438Y-40039876D01*
X8922440Y-40039874D01*
X8922445Y-40039873D01*
X9076788Y-39961232D01*
X9216928Y-39859414D01*
X9260098Y-39816243D01*
X9314613Y-39788468D01*
X9375045Y-39798039D01*
X9418310Y-39841304D01*
X9429100Y-39886249D01*
X9429100Y-40693751D01*
X9410193Y-40751942D01*
X9360693Y-40787906D01*
X9299507Y-40787906D01*
X9260098Y-40763756D01*
X9216928Y-40720586D01*
X9076788Y-40618768D01*
X9076787Y-40618767D01*
X9076785Y-40618766D01*
X8922441Y-40540125D01*
X8922438Y-40540123D01*
X8757706Y-40486598D01*
X8757702Y-40486597D01*
X8586614Y-40459500D01*
X8586611Y-40459500D01*
X8413389Y-40459500D01*
X8413386Y-40459500D01*
X8242297Y-40486597D01*
X8242293Y-40486598D01*
X8077561Y-40540123D01*
X8077558Y-40540125D01*
X7923214Y-40618766D01*
X7783073Y-40720585D01*
X7660585Y-40843073D01*
X7558766Y-40983214D01*
X7480125Y-41137558D01*
X7480123Y-41137561D01*
X7426598Y-41302293D01*
X7426597Y-41302297D01*
X7399500Y-41473385D01*
X7399500Y-41646614D01*
X7426597Y-41817702D01*
X7426598Y-41817706D01*
X7480123Y-41982438D01*
X7480125Y-41982441D01*
X7480126Y-41982444D01*
X7480127Y-41982445D01*
X7558768Y-42136788D01*
X7660586Y-42276928D01*
X7783072Y-42399414D01*
X7923212Y-42501232D01*
X8077555Y-42579873D01*
X8077557Y-42579873D01*
X8077558Y-42579874D01*
X8077561Y-42579876D01*
X8242293Y-42633401D01*
X8242297Y-42633402D01*
X8413386Y-42660500D01*
X8413389Y-42660500D01*
X8586614Y-42660500D01*
X8757702Y-42633402D01*
X8757706Y-42633401D01*
X8922438Y-42579876D01*
X8922440Y-42579874D01*
X8922445Y-42579873D01*
X9076788Y-42501232D01*
X9216928Y-42399414D01*
X9260098Y-42356243D01*
X9314613Y-42328468D01*
X9375045Y-42338039D01*
X9418310Y-42381304D01*
X9429100Y-42426249D01*
X9429100Y-43233751D01*
X9410193Y-43291942D01*
X9360693Y-43327906D01*
X9299507Y-43327906D01*
X9260098Y-43303756D01*
X9216928Y-43260586D01*
X9076788Y-43158768D01*
X9076787Y-43158767D01*
X9076785Y-43158766D01*
X8922441Y-43080125D01*
X8922438Y-43080123D01*
X8757706Y-43026598D01*
X8757702Y-43026597D01*
X8586614Y-42999500D01*
X8586611Y-42999500D01*
X8413389Y-42999500D01*
X8413386Y-42999500D01*
X8242297Y-43026597D01*
X8242293Y-43026598D01*
X8077561Y-43080123D01*
X8077558Y-43080125D01*
X7923214Y-43158766D01*
X7783073Y-43260585D01*
X7660585Y-43383073D01*
X7558766Y-43523214D01*
X7480125Y-43677558D01*
X7480123Y-43677561D01*
X7426598Y-43842293D01*
X7426597Y-43842297D01*
X7399500Y-44013385D01*
X7399500Y-44186614D01*
X7426597Y-44357702D01*
X7426598Y-44357706D01*
X7480123Y-44522438D01*
X7480125Y-44522441D01*
X7480126Y-44522444D01*
X7480127Y-44522445D01*
X7558768Y-44676788D01*
X7660586Y-44816928D01*
X7783072Y-44939414D01*
X7923212Y-45041232D01*
X8077555Y-45119873D01*
X8077557Y-45119873D01*
X8077558Y-45119874D01*
X8077561Y-45119876D01*
X8242293Y-45173401D01*
X8242297Y-45173402D01*
X8413386Y-45200500D01*
X8413389Y-45200500D01*
X8586614Y-45200500D01*
X8757702Y-45173402D01*
X8757706Y-45173401D01*
X8922438Y-45119876D01*
X8922440Y-45119874D01*
X8922445Y-45119873D01*
X9076788Y-45041232D01*
X9216928Y-44939414D01*
X9260098Y-44896243D01*
X9314613Y-44868468D01*
X9375045Y-44878039D01*
X9418310Y-44921304D01*
X9429100Y-44966249D01*
X9429100Y-45773751D01*
X9410193Y-45831942D01*
X9360693Y-45867906D01*
X9299507Y-45867906D01*
X9260098Y-45843756D01*
X9216928Y-45800586D01*
X9076788Y-45698768D01*
X9076787Y-45698767D01*
X9076785Y-45698766D01*
X8922441Y-45620125D01*
X8922438Y-45620123D01*
X8757706Y-45566598D01*
X8757702Y-45566597D01*
X8586614Y-45539500D01*
X8586611Y-45539500D01*
X8413389Y-45539500D01*
X8413386Y-45539500D01*
X8242297Y-45566597D01*
X8242293Y-45566598D01*
X8077561Y-45620123D01*
X8077558Y-45620125D01*
X7923214Y-45698766D01*
X7783073Y-45800585D01*
X7660585Y-45923073D01*
X7558766Y-46063214D01*
X7480125Y-46217558D01*
X7480123Y-46217561D01*
X7426598Y-46382293D01*
X7426597Y-46382297D01*
X7399500Y-46553385D01*
X7399500Y-46726614D01*
X7426597Y-46897702D01*
X7426598Y-46897706D01*
X7480123Y-47062438D01*
X7480125Y-47062441D01*
X7480126Y-47062444D01*
X7480127Y-47062445D01*
X7558768Y-47216788D01*
X7660586Y-47356928D01*
X7783072Y-47479414D01*
X7923212Y-47581232D01*
X8077555Y-47659873D01*
X8077557Y-47659873D01*
X8077558Y-47659874D01*
X8077561Y-47659876D01*
X8242293Y-47713401D01*
X8242297Y-47713402D01*
X8413386Y-47740500D01*
X8413389Y-47740500D01*
X8586614Y-47740500D01*
X8757702Y-47713402D01*
X8757706Y-47713401D01*
X8922438Y-47659876D01*
X8922440Y-47659874D01*
X8922445Y-47659873D01*
X9076788Y-47581232D01*
X9216928Y-47479414D01*
X9260098Y-47436243D01*
X9314613Y-47408468D01*
X9375045Y-47418039D01*
X9418310Y-47461304D01*
X9429100Y-47506249D01*
X9429100Y-48313751D01*
X9410193Y-48371942D01*
X9360693Y-48407906D01*
X9299507Y-48407906D01*
X9260098Y-48383756D01*
X9216928Y-48340586D01*
X9076788Y-48238768D01*
X9076787Y-48238767D01*
X9076785Y-48238766D01*
X8922441Y-48160125D01*
X8922438Y-48160123D01*
X8757706Y-48106598D01*
X8757702Y-48106597D01*
X8586614Y-48079500D01*
X8586611Y-48079500D01*
X8413389Y-48079500D01*
X8413386Y-48079500D01*
X8242297Y-48106597D01*
X8242293Y-48106598D01*
X8077561Y-48160123D01*
X8077558Y-48160125D01*
X7923214Y-48238766D01*
X7783073Y-48340585D01*
X7660585Y-48463073D01*
X7558766Y-48603214D01*
X7480125Y-48757558D01*
X7480123Y-48757561D01*
X7426598Y-48922293D01*
X7426597Y-48922297D01*
X7399500Y-49093385D01*
X7399500Y-49266614D01*
X7426597Y-49437702D01*
X7426598Y-49437706D01*
X7480123Y-49602438D01*
X7480125Y-49602441D01*
X7480126Y-49602444D01*
X7480127Y-49602445D01*
X7558768Y-49756788D01*
X7660586Y-49896928D01*
X7783072Y-50019414D01*
X7923212Y-50121232D01*
X8077555Y-50199873D01*
X8077557Y-50199873D01*
X8077558Y-50199874D01*
X8077561Y-50199876D01*
X8242293Y-50253401D01*
X8242297Y-50253402D01*
X8413386Y-50280500D01*
X8413389Y-50280500D01*
X8586614Y-50280500D01*
X8757702Y-50253402D01*
X8757706Y-50253401D01*
X8922438Y-50199876D01*
X8922440Y-50199874D01*
X8922445Y-50199873D01*
X9076788Y-50121232D01*
X9216928Y-50019414D01*
X9260098Y-49976243D01*
X9314613Y-49948468D01*
X9375045Y-49958039D01*
X9418310Y-50001304D01*
X9429100Y-50046249D01*
X9429100Y-50853751D01*
X9410193Y-50911942D01*
X9360693Y-50947906D01*
X9299507Y-50947906D01*
X9260098Y-50923756D01*
X9216928Y-50880586D01*
X9076788Y-50778768D01*
X9076787Y-50778767D01*
X9076785Y-50778766D01*
X8922441Y-50700125D01*
X8922438Y-50700123D01*
X8757706Y-50646598D01*
X8757702Y-50646597D01*
X8586614Y-50619500D01*
X8586611Y-50619500D01*
X8413389Y-50619500D01*
X8413386Y-50619500D01*
X8242297Y-50646597D01*
X8242293Y-50646598D01*
X8077561Y-50700123D01*
X8077558Y-50700125D01*
X7923214Y-50778766D01*
X7783073Y-50880585D01*
X7660585Y-51003073D01*
X7558766Y-51143214D01*
X7480125Y-51297558D01*
X7480123Y-51297561D01*
X7426598Y-51462293D01*
X7426597Y-51462297D01*
X7399500Y-51633385D01*
X7399500Y-51806614D01*
X7426597Y-51977702D01*
X7426598Y-51977706D01*
X7480123Y-52142438D01*
X7480125Y-52142441D01*
X7480126Y-52142444D01*
X7480127Y-52142445D01*
X7558768Y-52296788D01*
X7660586Y-52436928D01*
X7783072Y-52559414D01*
X7923212Y-52661232D01*
X8077555Y-52739873D01*
X8077557Y-52739873D01*
X8077558Y-52739874D01*
X8077561Y-52739876D01*
X8242293Y-52793401D01*
X8242297Y-52793402D01*
X8413386Y-52820500D01*
X8413389Y-52820500D01*
X8586614Y-52820500D01*
X8757702Y-52793402D01*
X8757706Y-52793401D01*
X8922438Y-52739876D01*
X8922440Y-52739874D01*
X8922445Y-52739873D01*
X9076788Y-52661232D01*
X9216928Y-52559414D01*
X9260098Y-52516243D01*
X9314613Y-52488468D01*
X9375045Y-52498039D01*
X9418310Y-52541304D01*
X9429100Y-52586249D01*
X9429100Y-53393751D01*
X9410193Y-53451942D01*
X9360693Y-53487906D01*
X9299507Y-53487906D01*
X9260098Y-53463756D01*
X9216928Y-53420586D01*
X9076788Y-53318768D01*
X9076787Y-53318767D01*
X9076785Y-53318766D01*
X8922441Y-53240125D01*
X8922438Y-53240123D01*
X8757706Y-53186598D01*
X8757702Y-53186597D01*
X8586614Y-53159500D01*
X8586611Y-53159500D01*
X8413389Y-53159500D01*
X8413386Y-53159500D01*
X8242297Y-53186597D01*
X8242293Y-53186598D01*
X8077561Y-53240123D01*
X8077558Y-53240125D01*
X7923214Y-53318766D01*
X7783073Y-53420585D01*
X7660585Y-53543073D01*
X7558766Y-53683214D01*
X7480125Y-53837558D01*
X7480123Y-53837561D01*
X7426598Y-54002293D01*
X7426597Y-54002297D01*
X7399500Y-54173385D01*
X7399500Y-54346614D01*
X7426597Y-54517702D01*
X7426598Y-54517706D01*
X7480123Y-54682438D01*
X7480125Y-54682441D01*
X7480126Y-54682444D01*
X7480127Y-54682445D01*
X7558768Y-54836788D01*
X7660586Y-54976928D01*
X7783072Y-55099414D01*
X7923212Y-55201232D01*
X8077555Y-55279873D01*
X8077557Y-55279873D01*
X8077558Y-55279874D01*
X8077561Y-55279876D01*
X8242293Y-55333401D01*
X8242297Y-55333402D01*
X8413386Y-55360500D01*
X8413389Y-55360500D01*
X8586614Y-55360500D01*
X8757702Y-55333402D01*
X8757706Y-55333401D01*
X8922438Y-55279876D01*
X8922440Y-55279874D01*
X8922445Y-55279873D01*
X9076788Y-55201232D01*
X9216928Y-55099414D01*
X9260098Y-55056243D01*
X9314613Y-55028468D01*
X9375045Y-55038039D01*
X9418310Y-55081304D01*
X9429100Y-55126249D01*
X9429100Y-55334210D01*
X9410193Y-55392401D01*
X9400103Y-55404214D01*
X9040707Y-55763609D01*
X8986191Y-55791386D01*
X8925765Y-55781818D01*
X8922445Y-55780126D01*
X8922438Y-55780123D01*
X8757706Y-55726598D01*
X8757702Y-55726597D01*
X8586614Y-55699500D01*
X8586611Y-55699500D01*
X8413389Y-55699500D01*
X8413386Y-55699500D01*
X8242297Y-55726597D01*
X8242293Y-55726598D01*
X8077561Y-55780123D01*
X8077558Y-55780125D01*
X7923214Y-55858766D01*
X7783073Y-55960585D01*
X7660585Y-56083073D01*
X7558766Y-56223214D01*
X7480125Y-56377558D01*
X7480123Y-56377561D01*
X7426598Y-56542293D01*
X7426597Y-56542297D01*
X7399500Y-56713385D01*
X7399500Y-56886614D01*
X7426597Y-57057702D01*
X7426598Y-57057706D01*
X7480123Y-57222438D01*
X7480125Y-57222441D01*
X7480126Y-57222444D01*
X7480127Y-57222445D01*
X7558768Y-57376788D01*
X7660586Y-57516928D01*
X7783072Y-57639414D01*
X7923212Y-57741232D01*
X8077555Y-57819873D01*
X8077557Y-57819873D01*
X8077558Y-57819874D01*
X8077561Y-57819876D01*
X8242293Y-57873401D01*
X8242297Y-57873402D01*
X8413386Y-57900500D01*
X8413389Y-57900500D01*
X8586614Y-57900500D01*
X8757702Y-57873402D01*
X8757706Y-57873401D01*
X8922438Y-57819876D01*
X8922440Y-57819874D01*
X8922445Y-57819873D01*
X9076788Y-57741232D01*
X9216928Y-57639414D01*
X9339414Y-57516928D01*
X9441232Y-57376788D01*
X9519873Y-57222445D01*
X9519874Y-57222440D01*
X9519876Y-57222438D01*
X9573401Y-57057706D01*
X9573402Y-57057702D01*
X9600500Y-56886614D01*
X9600500Y-56713385D01*
X9573402Y-56542297D01*
X9573401Y-56542293D01*
X9519876Y-56377563D01*
X9519872Y-56377553D01*
X9518186Y-56374244D01*
X9508611Y-56313813D01*
X9536386Y-56259295D01*
X9536385Y-56259295D01*
X10060070Y-55735612D01*
X10106214Y-55655688D01*
X10130100Y-55566543D01*
X10130100Y-55474256D01*
X10130100Y-54173385D01*
X30259500Y-54173385D01*
X30259500Y-54346614D01*
X30286597Y-54517702D01*
X30286598Y-54517706D01*
X30340123Y-54682438D01*
X30340125Y-54682441D01*
X30340126Y-54682444D01*
X30340127Y-54682445D01*
X30418768Y-54836788D01*
X30520586Y-54976928D01*
X30643072Y-55099414D01*
X30783212Y-55201232D01*
X30937555Y-55279873D01*
X30937557Y-55279873D01*
X30937558Y-55279874D01*
X30937561Y-55279876D01*
X31102293Y-55333401D01*
X31102297Y-55333402D01*
X31273386Y-55360500D01*
X31273389Y-55360500D01*
X31446614Y-55360500D01*
X31617702Y-55333402D01*
X31617706Y-55333401D01*
X31782438Y-55279876D01*
X31782440Y-55279874D01*
X31782445Y-55279873D01*
X31936788Y-55201232D01*
X32076928Y-55099414D01*
X32199414Y-54976928D01*
X32301232Y-54836788D01*
X32379873Y-54682445D01*
X32379874Y-54682440D01*
X32379876Y-54682438D01*
X32433401Y-54517706D01*
X32433402Y-54517702D01*
X32460500Y-54346614D01*
X32460500Y-54173385D01*
X32433402Y-54002297D01*
X32433401Y-54002293D01*
X32379876Y-53837561D01*
X32379874Y-53837558D01*
X32379873Y-53837557D01*
X32379873Y-53837555D01*
X32301232Y-53683212D01*
X32199414Y-53543072D01*
X32076928Y-53420586D01*
X31936788Y-53318768D01*
X31936787Y-53318767D01*
X31936785Y-53318766D01*
X31782441Y-53240125D01*
X31782438Y-53240123D01*
X31617706Y-53186598D01*
X31617702Y-53186597D01*
X31446614Y-53159500D01*
X31446611Y-53159500D01*
X31273389Y-53159500D01*
X31273386Y-53159500D01*
X31102297Y-53186597D01*
X31102293Y-53186598D01*
X30937561Y-53240123D01*
X30937558Y-53240125D01*
X30783214Y-53318766D01*
X30643073Y-53420585D01*
X30520585Y-53543073D01*
X30418766Y-53683214D01*
X30340125Y-53837558D01*
X30340123Y-53837561D01*
X30286598Y-54002293D01*
X30286597Y-54002297D01*
X30259500Y-54173385D01*
X10130100Y-54173385D01*
X10130100Y-51633385D01*
X30259500Y-51633385D01*
X30259500Y-51806614D01*
X30286597Y-51977702D01*
X30286598Y-51977706D01*
X30340123Y-52142438D01*
X30340125Y-52142441D01*
X30340126Y-52142444D01*
X30340127Y-52142445D01*
X30418768Y-52296788D01*
X30520586Y-52436928D01*
X30643072Y-52559414D01*
X30783212Y-52661232D01*
X30937555Y-52739873D01*
X30937557Y-52739873D01*
X30937558Y-52739874D01*
X30937561Y-52739876D01*
X31102293Y-52793401D01*
X31102297Y-52793402D01*
X31273386Y-52820500D01*
X31273389Y-52820500D01*
X31446614Y-52820500D01*
X31617702Y-52793402D01*
X31617706Y-52793401D01*
X31782438Y-52739876D01*
X31782440Y-52739874D01*
X31782445Y-52739873D01*
X31936788Y-52661232D01*
X32076928Y-52559414D01*
X32199414Y-52436928D01*
X32301232Y-52296788D01*
X32379873Y-52142445D01*
X32379874Y-52142440D01*
X32379876Y-52142438D01*
X32433401Y-51977706D01*
X32433402Y-51977702D01*
X32460500Y-51806614D01*
X32460500Y-51633385D01*
X32433402Y-51462297D01*
X32433401Y-51462293D01*
X32379876Y-51297561D01*
X32379874Y-51297558D01*
X32379873Y-51297557D01*
X32379873Y-51297555D01*
X32301232Y-51143212D01*
X32199414Y-51003072D01*
X32076928Y-50880586D01*
X31936788Y-50778768D01*
X31936787Y-50778767D01*
X31936785Y-50778766D01*
X31782441Y-50700125D01*
X31782438Y-50700123D01*
X31617706Y-50646598D01*
X31617702Y-50646597D01*
X31446614Y-50619500D01*
X31446611Y-50619500D01*
X31273389Y-50619500D01*
X31273386Y-50619500D01*
X31102297Y-50646597D01*
X31102293Y-50646598D01*
X30937561Y-50700123D01*
X30937558Y-50700125D01*
X30783214Y-50778766D01*
X30643073Y-50880585D01*
X30520585Y-51003073D01*
X30418766Y-51143214D01*
X30340125Y-51297558D01*
X30340123Y-51297561D01*
X30286598Y-51462293D01*
X30286597Y-51462297D01*
X30259500Y-51633385D01*
X10130100Y-51633385D01*
X10130100Y-49093385D01*
X30259500Y-49093385D01*
X30259500Y-49266614D01*
X30286597Y-49437702D01*
X30286598Y-49437706D01*
X30340123Y-49602438D01*
X30340125Y-49602441D01*
X30340126Y-49602444D01*
X30340127Y-49602445D01*
X30418768Y-49756788D01*
X30520586Y-49896928D01*
X30643072Y-50019414D01*
X30783212Y-50121232D01*
X30937555Y-50199873D01*
X30937557Y-50199873D01*
X30937558Y-50199874D01*
X30937561Y-50199876D01*
X31102293Y-50253401D01*
X31102297Y-50253402D01*
X31273386Y-50280500D01*
X31273389Y-50280500D01*
X31446614Y-50280500D01*
X31617702Y-50253402D01*
X31617706Y-50253401D01*
X31782438Y-50199876D01*
X31782440Y-50199874D01*
X31782445Y-50199873D01*
X31936788Y-50121232D01*
X32076928Y-50019414D01*
X32199414Y-49896928D01*
X32301232Y-49756788D01*
X32379873Y-49602445D01*
X32379874Y-49602440D01*
X32379876Y-49602438D01*
X32433401Y-49437706D01*
X32433402Y-49437702D01*
X32460500Y-49266614D01*
X32460500Y-49093385D01*
X32433402Y-48922297D01*
X32433401Y-48922293D01*
X32379876Y-48757561D01*
X32379874Y-48757558D01*
X32379873Y-48757557D01*
X32379873Y-48757555D01*
X32301232Y-48603212D01*
X32199414Y-48463072D01*
X32076928Y-48340586D01*
X31936788Y-48238768D01*
X31936787Y-48238767D01*
X31936785Y-48238766D01*
X31782441Y-48160125D01*
X31782438Y-48160123D01*
X31617706Y-48106598D01*
X31617702Y-48106597D01*
X31446614Y-48079500D01*
X31446611Y-48079500D01*
X31273389Y-48079500D01*
X31273386Y-48079500D01*
X31102297Y-48106597D01*
X31102293Y-48106598D01*
X30937561Y-48160123D01*
X30937558Y-48160125D01*
X30783214Y-48238766D01*
X30643073Y-48340585D01*
X30520585Y-48463073D01*
X30418766Y-48603214D01*
X30340125Y-48757558D01*
X30340123Y-48757561D01*
X30286598Y-48922293D01*
X30286597Y-48922297D01*
X30259500Y-49093385D01*
X10130100Y-49093385D01*
X10130100Y-46553385D01*
X30259500Y-46553385D01*
X30259500Y-46726614D01*
X30286597Y-46897702D01*
X30286598Y-46897706D01*
X30340123Y-47062438D01*
X30340125Y-47062441D01*
X30340126Y-47062444D01*
X30340127Y-47062445D01*
X30418768Y-47216788D01*
X30520586Y-47356928D01*
X30643072Y-47479414D01*
X30783212Y-47581232D01*
X30937555Y-47659873D01*
X30937557Y-47659873D01*
X30937558Y-47659874D01*
X30937561Y-47659876D01*
X31102293Y-47713401D01*
X31102297Y-47713402D01*
X31273386Y-47740500D01*
X31273389Y-47740500D01*
X31446614Y-47740500D01*
X31617702Y-47713402D01*
X31617706Y-47713401D01*
X31782438Y-47659876D01*
X31782440Y-47659874D01*
X31782445Y-47659873D01*
X31936788Y-47581232D01*
X32076928Y-47479414D01*
X32199414Y-47356928D01*
X32301232Y-47216788D01*
X32379873Y-47062445D01*
X32379874Y-47062440D01*
X32379876Y-47062438D01*
X32433401Y-46897706D01*
X32433402Y-46897702D01*
X32460500Y-46726614D01*
X32460500Y-46553385D01*
X32433402Y-46382297D01*
X32433401Y-46382293D01*
X32379876Y-46217561D01*
X32379874Y-46217558D01*
X32379873Y-46217557D01*
X32379873Y-46217555D01*
X32301232Y-46063212D01*
X32199414Y-45923072D01*
X32076928Y-45800586D01*
X31936788Y-45698768D01*
X31936787Y-45698767D01*
X31936785Y-45698766D01*
X31782441Y-45620125D01*
X31782438Y-45620123D01*
X31617706Y-45566598D01*
X31617702Y-45566597D01*
X31446614Y-45539500D01*
X31446611Y-45539500D01*
X31273389Y-45539500D01*
X31273386Y-45539500D01*
X31102297Y-45566597D01*
X31102293Y-45566598D01*
X30937561Y-45620123D01*
X30937558Y-45620125D01*
X30783214Y-45698766D01*
X30643073Y-45800585D01*
X30520585Y-45923073D01*
X30418766Y-46063214D01*
X30340125Y-46217558D01*
X30340123Y-46217561D01*
X30286598Y-46382293D01*
X30286597Y-46382297D01*
X30259500Y-46553385D01*
X10130100Y-46553385D01*
X10130100Y-44013385D01*
X30259500Y-44013385D01*
X30259500Y-44186614D01*
X30286597Y-44357702D01*
X30286598Y-44357706D01*
X30340123Y-44522438D01*
X30340125Y-44522441D01*
X30340126Y-44522444D01*
X30340127Y-44522445D01*
X30418768Y-44676788D01*
X30520586Y-44816928D01*
X30643072Y-44939414D01*
X30783212Y-45041232D01*
X30937555Y-45119873D01*
X30937557Y-45119873D01*
X30937558Y-45119874D01*
X30937561Y-45119876D01*
X31102293Y-45173401D01*
X31102297Y-45173402D01*
X31273386Y-45200500D01*
X31273389Y-45200500D01*
X31446614Y-45200500D01*
X31617702Y-45173402D01*
X31617706Y-45173401D01*
X31782438Y-45119876D01*
X31782440Y-45119874D01*
X31782445Y-45119873D01*
X31936788Y-45041232D01*
X32076928Y-44939414D01*
X32199414Y-44816928D01*
X32301232Y-44676788D01*
X32379873Y-44522445D01*
X32379874Y-44522440D01*
X32379876Y-44522438D01*
X32433401Y-44357706D01*
X32433402Y-44357702D01*
X32460500Y-44186614D01*
X32460500Y-44013385D01*
X32433402Y-43842297D01*
X32433401Y-43842293D01*
X32379876Y-43677561D01*
X32379874Y-43677558D01*
X32379873Y-43677557D01*
X32379873Y-43677555D01*
X32301232Y-43523212D01*
X32199414Y-43383072D01*
X32076928Y-43260586D01*
X31936788Y-43158768D01*
X31936787Y-43158767D01*
X31936785Y-43158766D01*
X31782441Y-43080125D01*
X31782438Y-43080123D01*
X31617706Y-43026598D01*
X31617702Y-43026597D01*
X31446614Y-42999500D01*
X31446611Y-42999500D01*
X31273389Y-42999500D01*
X31273386Y-42999500D01*
X31102297Y-43026597D01*
X31102293Y-43026598D01*
X30937561Y-43080123D01*
X30937558Y-43080125D01*
X30783214Y-43158766D01*
X30643073Y-43260585D01*
X30520585Y-43383073D01*
X30418766Y-43523214D01*
X30340125Y-43677558D01*
X30340123Y-43677561D01*
X30286598Y-43842293D01*
X30286597Y-43842297D01*
X30259500Y-44013385D01*
X10130100Y-44013385D01*
X10130100Y-41473385D01*
X30259500Y-41473385D01*
X30259500Y-41646614D01*
X30286597Y-41817702D01*
X30286598Y-41817706D01*
X30340123Y-41982438D01*
X30340125Y-41982441D01*
X30340126Y-41982444D01*
X30340127Y-41982445D01*
X30418768Y-42136788D01*
X30520586Y-42276928D01*
X30643072Y-42399414D01*
X30783212Y-42501232D01*
X30937555Y-42579873D01*
X30937557Y-42579873D01*
X30937558Y-42579874D01*
X30937561Y-42579876D01*
X31102293Y-42633401D01*
X31102297Y-42633402D01*
X31273386Y-42660500D01*
X31273389Y-42660500D01*
X31446614Y-42660500D01*
X31617702Y-42633402D01*
X31617706Y-42633401D01*
X31782438Y-42579876D01*
X31782440Y-42579874D01*
X31782445Y-42579873D01*
X31936788Y-42501232D01*
X32076928Y-42399414D01*
X32199414Y-42276928D01*
X32301232Y-42136788D01*
X32379873Y-41982445D01*
X32420592Y-41857125D01*
X37008300Y-41857125D01*
X37008300Y-42002074D01*
X37045817Y-42142089D01*
X37118287Y-42267610D01*
X37118289Y-42267612D01*
X37118291Y-42267615D01*
X37220785Y-42370109D01*
X37220787Y-42370110D01*
X37220789Y-42370112D01*
X37346311Y-42442582D01*
X37346312Y-42442582D01*
X37346315Y-42442584D01*
X37486325Y-42480100D01*
X37486326Y-42480100D01*
X37631274Y-42480100D01*
X37631275Y-42480100D01*
X37771285Y-42442584D01*
X37771287Y-42442582D01*
X37771289Y-42442582D01*
X37896810Y-42370112D01*
X37896810Y-42370111D01*
X37896815Y-42370109D01*
X37999309Y-42267615D01*
X38071784Y-42142085D01*
X38109300Y-42002075D01*
X38109300Y-41857125D01*
X38071784Y-41717115D01*
X38071782Y-41717112D01*
X38071782Y-41717110D01*
X37999312Y-41591589D01*
X37999310Y-41591587D01*
X37999309Y-41591585D01*
X37896815Y-41489091D01*
X37896812Y-41489089D01*
X37896810Y-41489087D01*
X37771288Y-41416617D01*
X37771289Y-41416617D01*
X37741696Y-41408687D01*
X37631275Y-41379100D01*
X37486325Y-41379100D01*
X37424590Y-41395641D01*
X37346310Y-41416617D01*
X37220789Y-41489087D01*
X37118287Y-41591589D01*
X37045817Y-41717110D01*
X37008300Y-41857125D01*
X32420592Y-41857125D01*
X32433402Y-41817701D01*
X32460500Y-41646611D01*
X32460500Y-41473389D01*
X32460500Y-41473385D01*
X32433402Y-41302297D01*
X32433401Y-41302293D01*
X32379876Y-41137561D01*
X32379874Y-41137558D01*
X32379873Y-41137557D01*
X32379873Y-41137555D01*
X32301232Y-40983212D01*
X32199414Y-40843072D01*
X32076928Y-40720586D01*
X31936788Y-40618768D01*
X31936787Y-40618767D01*
X31936785Y-40618766D01*
X31782441Y-40540125D01*
X31782438Y-40540123D01*
X31617706Y-40486598D01*
X31617702Y-40486597D01*
X31446614Y-40459500D01*
X31446611Y-40459500D01*
X31273389Y-40459500D01*
X31273386Y-40459500D01*
X31102297Y-40486597D01*
X31102293Y-40486598D01*
X30937561Y-40540123D01*
X30937558Y-40540125D01*
X30783214Y-40618766D01*
X30643073Y-40720585D01*
X30520585Y-40843073D01*
X30418766Y-40983214D01*
X30340125Y-41137558D01*
X30340123Y-41137561D01*
X30286598Y-41302293D01*
X30286597Y-41302297D01*
X30259500Y-41473385D01*
X10130100Y-41473385D01*
X10130100Y-38933385D01*
X30259500Y-38933385D01*
X30259500Y-39106614D01*
X30286597Y-39277702D01*
X30286598Y-39277706D01*
X30340123Y-39442438D01*
X30340125Y-39442441D01*
X30340126Y-39442444D01*
X30340127Y-39442445D01*
X30418768Y-39596788D01*
X30520586Y-39736928D01*
X30643072Y-39859414D01*
X30783212Y-39961232D01*
X30937555Y-40039873D01*
X30937557Y-40039873D01*
X30937558Y-40039874D01*
X30937561Y-40039876D01*
X31102293Y-40093401D01*
X31102297Y-40093402D01*
X31273386Y-40120500D01*
X31273389Y-40120500D01*
X31446614Y-40120500D01*
X31617702Y-40093402D01*
X31617706Y-40093401D01*
X31782438Y-40039876D01*
X31782440Y-40039874D01*
X31782445Y-40039873D01*
X31936788Y-39961232D01*
X32076928Y-39859414D01*
X32199414Y-39736928D01*
X32301232Y-39596788D01*
X32379873Y-39442445D01*
X32379874Y-39442440D01*
X32379876Y-39442438D01*
X32433401Y-39277706D01*
X32433402Y-39277702D01*
X32460500Y-39106614D01*
X32460500Y-38933385D01*
X32433402Y-38762297D01*
X32433401Y-38762293D01*
X32379876Y-38597561D01*
X32379874Y-38597558D01*
X32379873Y-38597557D01*
X32379873Y-38597555D01*
X32301232Y-38443212D01*
X32199414Y-38303072D01*
X32076928Y-38180586D01*
X31936788Y-38078768D01*
X31936787Y-38078767D01*
X31936785Y-38078766D01*
X31782441Y-38000125D01*
X31782438Y-38000123D01*
X31617706Y-37946598D01*
X31617702Y-37946597D01*
X31446614Y-37919500D01*
X31446611Y-37919500D01*
X31273389Y-37919500D01*
X31273386Y-37919500D01*
X31102297Y-37946597D01*
X31102293Y-37946598D01*
X30937561Y-38000123D01*
X30937558Y-38000125D01*
X30783214Y-38078766D01*
X30643073Y-38180585D01*
X30520585Y-38303073D01*
X30418766Y-38443214D01*
X30340125Y-38597558D01*
X30340123Y-38597561D01*
X30286598Y-38762293D01*
X30286597Y-38762297D01*
X30259500Y-38933385D01*
X10130100Y-38933385D01*
X10130100Y-36393385D01*
X30259500Y-36393385D01*
X30259500Y-36566614D01*
X30286597Y-36737702D01*
X30286598Y-36737706D01*
X30340123Y-36902438D01*
X30340125Y-36902441D01*
X30340126Y-36902444D01*
X30340127Y-36902445D01*
X30418768Y-37056788D01*
X30520586Y-37196928D01*
X30643072Y-37319414D01*
X30783212Y-37421232D01*
X30937555Y-37499873D01*
X30937557Y-37499873D01*
X30937558Y-37499874D01*
X30937561Y-37499876D01*
X31102293Y-37553401D01*
X31102297Y-37553402D01*
X31273386Y-37580500D01*
X31273389Y-37580500D01*
X31446614Y-37580500D01*
X31617702Y-37553402D01*
X31617706Y-37553401D01*
X31782438Y-37499876D01*
X31782440Y-37499874D01*
X31782445Y-37499873D01*
X31936788Y-37421232D01*
X32076928Y-37319414D01*
X32199414Y-37196928D01*
X32301232Y-37056788D01*
X32379873Y-36902445D01*
X32379874Y-36902440D01*
X32379876Y-36902438D01*
X32433401Y-36737706D01*
X32433402Y-36737702D01*
X32460500Y-36566614D01*
X32460500Y-36393385D01*
X32433402Y-36222297D01*
X32433401Y-36222293D01*
X32379876Y-36057561D01*
X32379874Y-36057558D01*
X32379873Y-36057557D01*
X32379873Y-36057555D01*
X32301232Y-35903212D01*
X32199414Y-35763072D01*
X32076928Y-35640586D01*
X31997565Y-35582925D01*
X42713700Y-35582925D01*
X42713700Y-35727875D01*
X42743287Y-35838296D01*
X42751217Y-35867889D01*
X42823687Y-35993410D01*
X42823689Y-35993412D01*
X42823691Y-35993415D01*
X42884705Y-36054429D01*
X42912481Y-36108944D01*
X42913700Y-36124431D01*
X42913700Y-50927944D01*
X42937586Y-51017088D01*
X42983730Y-51097012D01*
X43438005Y-51551287D01*
X43465781Y-51605802D01*
X43467000Y-51621289D01*
X43467000Y-51707574D01*
X43504517Y-51847589D01*
X43576987Y-51973110D01*
X43576989Y-51973112D01*
X43576991Y-51973115D01*
X43679485Y-52075609D01*
X43679487Y-52075610D01*
X43679489Y-52075612D01*
X43805011Y-52148082D01*
X43805012Y-52148082D01*
X43805015Y-52148084D01*
X43945025Y-52185600D01*
X43945026Y-52185600D01*
X44089974Y-52185600D01*
X44089975Y-52185600D01*
X44229985Y-52148084D01*
X44229987Y-52148082D01*
X44229989Y-52148082D01*
X44355510Y-52075612D01*
X44355510Y-52075611D01*
X44355515Y-52075609D01*
X44458009Y-51973115D01*
X44530484Y-51847585D01*
X44568000Y-51707575D01*
X44568000Y-51562625D01*
X44530484Y-51422615D01*
X44530482Y-51422612D01*
X44530482Y-51422610D01*
X44458012Y-51297089D01*
X44458010Y-51297087D01*
X44458009Y-51297085D01*
X44355515Y-51194591D01*
X44355512Y-51194589D01*
X44355510Y-51194587D01*
X44229988Y-51122117D01*
X44229989Y-51122117D01*
X44200396Y-51114187D01*
X44089975Y-51084600D01*
X44089974Y-51084600D01*
X44003690Y-51084600D01*
X43945499Y-51065693D01*
X43933686Y-51055604D01*
X43643696Y-50765614D01*
X43615919Y-50711097D01*
X43614700Y-50695610D01*
X43614700Y-42877763D01*
X43633607Y-42819572D01*
X43683107Y-42783608D01*
X43744293Y-42783608D01*
X43763200Y-42792027D01*
X43814911Y-42821882D01*
X43814912Y-42821882D01*
X43814915Y-42821884D01*
X43954925Y-42859400D01*
X43954926Y-42859400D01*
X44099874Y-42859400D01*
X44099875Y-42859400D01*
X44239885Y-42821884D01*
X44239887Y-42821882D01*
X44239889Y-42821882D01*
X44365410Y-42749412D01*
X44365410Y-42749411D01*
X44365415Y-42749409D01*
X44467909Y-42646915D01*
X44540384Y-42521385D01*
X44577900Y-42381375D01*
X44577900Y-42295089D01*
X44596807Y-42236898D01*
X44606890Y-42225091D01*
X45280570Y-41551412D01*
X45326714Y-41471488D01*
X45350600Y-41382343D01*
X45350600Y-41290056D01*
X45350600Y-37861290D01*
X45369507Y-37803099D01*
X45379596Y-37791286D01*
X47924696Y-35246186D01*
X47979213Y-35218409D01*
X48039645Y-35227980D01*
X48064704Y-35246186D01*
X48390104Y-35571586D01*
X48417881Y-35626103D01*
X48419100Y-35641590D01*
X48419100Y-35727875D01*
X48448687Y-35838296D01*
X48456617Y-35867889D01*
X48529087Y-35993410D01*
X48529089Y-35993412D01*
X48529091Y-35993415D01*
X48631585Y-36095909D01*
X48631587Y-36095910D01*
X48631589Y-36095912D01*
X48757111Y-36168382D01*
X48757112Y-36168382D01*
X48757115Y-36168384D01*
X48897125Y-36205900D01*
X48897126Y-36205900D01*
X49042074Y-36205900D01*
X49042075Y-36205900D01*
X49182085Y-36168384D01*
X49182087Y-36168382D01*
X49182089Y-36168382D01*
X49307610Y-36095912D01*
X49307610Y-36095911D01*
X49307615Y-36095909D01*
X49410109Y-35993415D01*
X49482584Y-35867885D01*
X49520100Y-35727875D01*
X49520100Y-35582925D01*
X49482584Y-35442915D01*
X49482582Y-35442912D01*
X49482582Y-35442910D01*
X49410112Y-35317389D01*
X49410110Y-35317387D01*
X49410109Y-35317385D01*
X49307615Y-35214891D01*
X49307612Y-35214889D01*
X49307610Y-35214887D01*
X49182088Y-35142417D01*
X49182089Y-35142417D01*
X49152496Y-35134487D01*
X49042075Y-35104900D01*
X49042074Y-35104900D01*
X48955790Y-35104900D01*
X48897599Y-35085993D01*
X48885786Y-35075904D01*
X46229496Y-32419614D01*
X46201719Y-32365097D01*
X46200500Y-32349610D01*
X46200500Y-27750925D01*
X51271800Y-27750925D01*
X51271800Y-27895874D01*
X51309317Y-28035889D01*
X51381787Y-28161410D01*
X51381789Y-28161412D01*
X51381791Y-28161415D01*
X51484285Y-28263909D01*
X51484287Y-28263910D01*
X51484289Y-28263912D01*
X51609811Y-28336382D01*
X51609812Y-28336382D01*
X51609815Y-28336384D01*
X51749825Y-28373900D01*
X51749826Y-28373900D01*
X51894774Y-28373900D01*
X51894775Y-28373900D01*
X52034785Y-28336384D01*
X52034787Y-28336382D01*
X52034789Y-28336382D01*
X52160310Y-28263912D01*
X52160310Y-28263911D01*
X52160315Y-28263909D01*
X52262809Y-28161415D01*
X52273399Y-28143073D01*
X52335282Y-28035889D01*
X52335282Y-28035887D01*
X52335284Y-28035885D01*
X52372800Y-27895875D01*
X52372800Y-27750925D01*
X52335284Y-27610915D01*
X52335282Y-27610912D01*
X52335282Y-27610910D01*
X52262812Y-27485389D01*
X52262810Y-27485387D01*
X52262809Y-27485385D01*
X52160315Y-27382891D01*
X52160312Y-27382889D01*
X52160310Y-27382887D01*
X52034788Y-27310417D01*
X52034789Y-27310417D01*
X52005196Y-27302487D01*
X51894775Y-27272900D01*
X51749825Y-27272900D01*
X51688090Y-27289441D01*
X51609810Y-27310417D01*
X51484289Y-27382887D01*
X51381787Y-27485389D01*
X51309317Y-27610910D01*
X51271800Y-27750925D01*
X46200500Y-27750925D01*
X46200500Y-13426484D01*
X46219407Y-13368293D01*
X46268907Y-13332329D01*
X46330093Y-13332329D01*
X46348990Y-13340742D01*
X46468216Y-13409577D01*
X46620943Y-13450500D01*
X46620945Y-13450500D01*
X46779055Y-13450500D01*
X46779057Y-13450500D01*
X46931784Y-13409577D01*
X47068716Y-13330520D01*
X47068718Y-13330517D01*
X47074335Y-13327275D01*
X47075725Y-13329683D01*
X47122405Y-13313152D01*
X47174850Y-13328685D01*
X47175665Y-13327275D01*
X47181281Y-13330517D01*
X47181284Y-13330520D01*
X47318216Y-13409577D01*
X47470943Y-13450500D01*
X47470945Y-13450500D01*
X47629055Y-13450500D01*
X47629057Y-13450500D01*
X47781784Y-13409577D01*
X47918716Y-13330520D01*
X47918718Y-13330517D01*
X47924335Y-13327275D01*
X47925725Y-13329683D01*
X47972405Y-13313152D01*
X48024850Y-13328685D01*
X48025665Y-13327275D01*
X48031281Y-13330517D01*
X48031284Y-13330520D01*
X48168216Y-13409577D01*
X48320943Y-13450500D01*
X48320945Y-13450500D01*
X48479055Y-13450500D01*
X48479057Y-13450500D01*
X48631784Y-13409577D01*
X48768716Y-13330520D01*
X48768718Y-13330517D01*
X48774335Y-13327275D01*
X48775725Y-13329683D01*
X48822405Y-13313152D01*
X48874850Y-13328685D01*
X48875665Y-13327275D01*
X48881281Y-13330517D01*
X48881284Y-13330520D01*
X49018216Y-13409577D01*
X49170943Y-13450500D01*
X49170945Y-13450500D01*
X49329055Y-13450500D01*
X49329057Y-13450500D01*
X49481784Y-13409577D01*
X49618716Y-13330520D01*
X49618718Y-13330517D01*
X49624335Y-13327275D01*
X49625725Y-13329683D01*
X49672405Y-13313152D01*
X49724850Y-13328685D01*
X49725665Y-13327275D01*
X49731281Y-13330517D01*
X49731284Y-13330520D01*
X49868216Y-13409577D01*
X50020943Y-13450500D01*
X50020945Y-13450500D01*
X50179055Y-13450500D01*
X50179057Y-13450500D01*
X50331784Y-13409577D01*
X50468716Y-13330520D01*
X50580520Y-13218716D01*
X50659577Y-13081784D01*
X50700500Y-12929057D01*
X50700500Y-12770943D01*
X50659577Y-12618216D01*
X50580520Y-12481284D01*
X50479494Y-12380258D01*
X50451719Y-12325744D01*
X50450500Y-12310257D01*
X50450500Y-12039743D01*
X50469407Y-11981552D01*
X50479490Y-11969745D01*
X50580520Y-11868716D01*
X50659577Y-11731784D01*
X50700500Y-11579057D01*
X50700500Y-11420943D01*
X50659577Y-11268216D01*
X50580520Y-11131284D01*
X50468716Y-11019480D01*
X50331784Y-10940423D01*
X50179057Y-10899500D01*
X50020943Y-10899500D01*
X49868216Y-10940423D01*
X49731284Y-11019480D01*
X49731281Y-11019482D01*
X49725665Y-11022725D01*
X49724278Y-11020324D01*
X49677541Y-11036848D01*
X49625156Y-11021302D01*
X49624335Y-11022725D01*
X49618718Y-11019482D01*
X49618716Y-11019480D01*
X49481784Y-10940423D01*
X49329057Y-10899500D01*
X49170943Y-10899500D01*
X49018216Y-10940423D01*
X48881284Y-11019480D01*
X48881281Y-11019482D01*
X48875665Y-11022725D01*
X48874278Y-11020324D01*
X48827541Y-11036848D01*
X48775156Y-11021302D01*
X48774335Y-11022725D01*
X48768718Y-11019482D01*
X48768716Y-11019480D01*
X48631784Y-10940423D01*
X48479057Y-10899500D01*
X48320943Y-10899500D01*
X48168216Y-10940423D01*
X48031284Y-11019480D01*
X48031281Y-11019482D01*
X48025665Y-11022725D01*
X48024278Y-11020324D01*
X47977541Y-11036848D01*
X47925156Y-11021302D01*
X47924335Y-11022725D01*
X47918718Y-11019482D01*
X47918716Y-11019480D01*
X47781784Y-10940423D01*
X47629057Y-10899500D01*
X47470943Y-10899500D01*
X47318216Y-10940423D01*
X47181284Y-11019480D01*
X47181281Y-11019482D01*
X47175665Y-11022725D01*
X47174278Y-11020324D01*
X47127541Y-11036848D01*
X47075156Y-11021302D01*
X47074335Y-11022725D01*
X47068718Y-11019482D01*
X47068716Y-11019480D01*
X46931784Y-10940423D01*
X46779057Y-10899500D01*
X46620943Y-10899500D01*
X46468216Y-10940423D01*
X46331284Y-11019480D01*
X46331281Y-11019482D01*
X46325665Y-11022725D01*
X46324278Y-11020324D01*
X46277541Y-11036848D01*
X46225156Y-11021302D01*
X46224335Y-11022725D01*
X46218718Y-11019482D01*
X46218716Y-11019480D01*
X46081784Y-10940423D01*
X45929057Y-10899500D01*
X45770943Y-10899500D01*
X45618216Y-10940423D01*
X45481284Y-11019480D01*
X45369480Y-11131284D01*
X45290423Y-11268216D01*
X45249500Y-11420943D01*
X45249500Y-11579057D01*
X45290423Y-11731784D01*
X45369480Y-11868716D01*
X45470505Y-11969741D01*
X45498281Y-12024256D01*
X45499500Y-12039743D01*
X45499500Y-12310257D01*
X45480593Y-12368448D01*
X45470509Y-12380254D01*
X45369480Y-12481284D01*
X45290423Y-12618216D01*
X45249500Y-12770943D01*
X45249500Y-12929057D01*
X45290423Y-13081784D01*
X45369480Y-13218716D01*
X45470505Y-13319741D01*
X45498281Y-13374256D01*
X45499500Y-13389743D01*
X45499500Y-24626756D01*
X45499500Y-24668056D01*
X45499500Y-25476656D01*
X45499500Y-32581944D01*
X45523386Y-32671088D01*
X45569530Y-32751012D01*
X47429015Y-34610497D01*
X47456791Y-34665012D01*
X47447220Y-34725444D01*
X47429014Y-34750503D01*
X46070574Y-36108944D01*
X44719630Y-37459888D01*
X44696545Y-37499873D01*
X44681172Y-37526499D01*
X44673486Y-37539811D01*
X44649600Y-37628957D01*
X44649600Y-41150010D01*
X44630693Y-41208201D01*
X44620604Y-41220014D01*
X44111214Y-41729404D01*
X44056697Y-41757181D01*
X44041210Y-41758400D01*
X43954925Y-41758400D01*
X43844503Y-41787987D01*
X43814911Y-41795917D01*
X43763199Y-41825773D01*
X43703351Y-41838494D01*
X43647455Y-41813607D01*
X43616863Y-41760618D01*
X43614700Y-41740036D01*
X43614700Y-36124431D01*
X43633607Y-36066240D01*
X43643690Y-36054433D01*
X43704709Y-35993415D01*
X43777184Y-35867885D01*
X43814700Y-35727875D01*
X43814700Y-35582925D01*
X43777184Y-35442915D01*
X43777182Y-35442912D01*
X43777182Y-35442910D01*
X43704712Y-35317389D01*
X43704710Y-35317387D01*
X43704709Y-35317385D01*
X43602215Y-35214891D01*
X43602212Y-35214889D01*
X43602210Y-35214887D01*
X43476688Y-35142417D01*
X43476689Y-35142417D01*
X43447096Y-35134487D01*
X43336675Y-35104900D01*
X43191725Y-35104900D01*
X43129990Y-35121441D01*
X43051710Y-35142417D01*
X42926189Y-35214887D01*
X42823687Y-35317389D01*
X42751217Y-35442910D01*
X42725532Y-35538768D01*
X42713700Y-35582925D01*
X31997565Y-35582925D01*
X31936788Y-35538768D01*
X31936787Y-35538767D01*
X31936785Y-35538766D01*
X31782441Y-35460125D01*
X31782438Y-35460123D01*
X31617706Y-35406598D01*
X31617702Y-35406597D01*
X31446614Y-35379500D01*
X31446611Y-35379500D01*
X31273389Y-35379500D01*
X31273386Y-35379500D01*
X31102297Y-35406597D01*
X31102293Y-35406598D01*
X30937561Y-35460123D01*
X30937558Y-35460125D01*
X30783214Y-35538766D01*
X30643073Y-35640585D01*
X30520585Y-35763073D01*
X30418766Y-35903214D01*
X30340125Y-36057558D01*
X30340123Y-36057561D01*
X30286598Y-36222293D01*
X30286597Y-36222297D01*
X30259500Y-36393385D01*
X10130100Y-36393385D01*
X10130100Y-33853385D01*
X30259500Y-33853385D01*
X30259500Y-34026614D01*
X30286597Y-34197702D01*
X30286598Y-34197706D01*
X30340123Y-34362438D01*
X30340125Y-34362441D01*
X30340126Y-34362444D01*
X30340127Y-34362445D01*
X30418768Y-34516788D01*
X30520586Y-34656928D01*
X30643072Y-34779414D01*
X30783212Y-34881232D01*
X30937555Y-34959873D01*
X30937557Y-34959873D01*
X30937558Y-34959874D01*
X30937561Y-34959876D01*
X31102293Y-35013401D01*
X31102297Y-35013402D01*
X31273386Y-35040500D01*
X31273389Y-35040500D01*
X31446614Y-35040500D01*
X31617702Y-35013402D01*
X31617706Y-35013401D01*
X31782438Y-34959876D01*
X31782440Y-34959874D01*
X31782445Y-34959873D01*
X31936788Y-34881232D01*
X32076928Y-34779414D01*
X32199414Y-34656928D01*
X32301232Y-34516788D01*
X32379873Y-34362445D01*
X32379874Y-34362440D01*
X32379876Y-34362438D01*
X32433401Y-34197706D01*
X32433402Y-34197702D01*
X32460500Y-34026614D01*
X32460500Y-33853385D01*
X32433402Y-33682297D01*
X32433401Y-33682293D01*
X32379876Y-33517561D01*
X32379874Y-33517558D01*
X32379873Y-33517557D01*
X32379873Y-33517555D01*
X32301232Y-33363212D01*
X32199414Y-33223072D01*
X32076928Y-33100586D01*
X31936788Y-32998768D01*
X31936787Y-32998767D01*
X31936785Y-32998766D01*
X31782441Y-32920125D01*
X31782438Y-32920123D01*
X31617706Y-32866598D01*
X31617702Y-32866597D01*
X31446614Y-32839500D01*
X31446611Y-32839500D01*
X31273389Y-32839500D01*
X31273386Y-32839500D01*
X31102297Y-32866597D01*
X31102293Y-32866598D01*
X30937561Y-32920123D01*
X30937558Y-32920125D01*
X30783214Y-32998766D01*
X30643073Y-33100585D01*
X30520585Y-33223073D01*
X30418766Y-33363214D01*
X30340125Y-33517558D01*
X30340123Y-33517561D01*
X30286598Y-33682293D01*
X30286597Y-33682297D01*
X30259500Y-33853385D01*
X10130100Y-33853385D01*
X10130100Y-33139031D01*
X10149007Y-33080840D01*
X10159090Y-33069033D01*
X10220109Y-33008015D01*
X10238101Y-32976852D01*
X10292582Y-32882489D01*
X10292583Y-32882486D01*
X10292584Y-32882485D01*
X10330100Y-32742475D01*
X10330100Y-32597525D01*
X10292584Y-32457515D01*
X10292582Y-32457511D01*
X10292582Y-32457510D01*
X10220112Y-32331989D01*
X10220110Y-32331987D01*
X10220109Y-32331985D01*
X10117615Y-32229491D01*
X10117612Y-32229489D01*
X10117610Y-32229487D01*
X9992088Y-32157017D01*
X9992089Y-32157017D01*
X9962496Y-32149087D01*
X9852075Y-32119500D01*
X9707125Y-32119500D01*
X9596703Y-32149087D01*
X9567111Y-32157017D01*
X9528073Y-32179556D01*
X9468225Y-32192277D01*
X9412329Y-32167390D01*
X9381737Y-32114402D01*
X9388133Y-32053551D01*
X9398482Y-32035628D01*
X9441232Y-31976788D01*
X9519873Y-31822445D01*
X9519874Y-31822440D01*
X9519876Y-31822438D01*
X9573401Y-31657706D01*
X9573402Y-31657702D01*
X9600500Y-31486614D01*
X9600500Y-31313385D01*
X30259500Y-31313385D01*
X30259500Y-31486614D01*
X30286597Y-31657702D01*
X30286598Y-31657706D01*
X30340123Y-31822438D01*
X30340125Y-31822441D01*
X30340126Y-31822444D01*
X30340127Y-31822445D01*
X30418768Y-31976788D01*
X30520586Y-32116928D01*
X30643072Y-32239414D01*
X30783212Y-32341232D01*
X30937555Y-32419873D01*
X30937557Y-32419873D01*
X30937558Y-32419874D01*
X30937561Y-32419876D01*
X31102293Y-32473401D01*
X31102297Y-32473402D01*
X31273386Y-32500500D01*
X31273389Y-32500500D01*
X31446614Y-32500500D01*
X31617702Y-32473402D01*
X31617706Y-32473401D01*
X31782438Y-32419876D01*
X31782440Y-32419874D01*
X31782445Y-32419873D01*
X31936788Y-32341232D01*
X32076928Y-32239414D01*
X32199414Y-32116928D01*
X32301232Y-31976788D01*
X32379873Y-31822445D01*
X32379874Y-31822440D01*
X32379876Y-31822438D01*
X32433401Y-31657706D01*
X32433402Y-31657702D01*
X32460500Y-31486614D01*
X32460500Y-31313385D01*
X32433402Y-31142297D01*
X32433401Y-31142293D01*
X32379876Y-30977561D01*
X32379874Y-30977558D01*
X32379873Y-30977557D01*
X32379873Y-30977555D01*
X32301232Y-30823212D01*
X32199414Y-30683072D01*
X32076928Y-30560586D01*
X31936788Y-30458768D01*
X31936787Y-30458767D01*
X31936785Y-30458766D01*
X31782441Y-30380125D01*
X31782438Y-30380123D01*
X31617706Y-30326598D01*
X31617702Y-30326597D01*
X31446614Y-30299500D01*
X31446611Y-30299500D01*
X31273389Y-30299500D01*
X31273386Y-30299500D01*
X31102297Y-30326597D01*
X31102293Y-30326598D01*
X30937561Y-30380123D01*
X30937558Y-30380125D01*
X30783214Y-30458766D01*
X30643073Y-30560585D01*
X30520585Y-30683073D01*
X30418766Y-30823214D01*
X30340125Y-30977558D01*
X30340123Y-30977561D01*
X30286598Y-31142293D01*
X30286597Y-31142297D01*
X30259500Y-31313385D01*
X9600500Y-31313385D01*
X9573402Y-31142297D01*
X9573401Y-31142293D01*
X9519876Y-30977561D01*
X9519874Y-30977558D01*
X9519873Y-30977557D01*
X9519873Y-30977555D01*
X9441232Y-30823212D01*
X9339414Y-30683072D01*
X9216928Y-30560586D01*
X9076788Y-30458768D01*
X9076787Y-30458767D01*
X9076785Y-30458766D01*
X8922441Y-30380125D01*
X8922438Y-30380123D01*
X8757706Y-30326598D01*
X8757702Y-30326597D01*
X8586614Y-30299500D01*
X8586611Y-30299500D01*
X8413389Y-30299500D01*
X8413386Y-30299500D01*
X8242297Y-30326597D01*
X8242293Y-30326598D01*
X8077561Y-30380123D01*
X8077558Y-30380125D01*
X7923214Y-30458766D01*
X7783073Y-30560585D01*
X7660585Y-30683073D01*
X7558766Y-30823214D01*
X7480125Y-30977558D01*
X7480123Y-30977561D01*
X7426598Y-31142293D01*
X7426597Y-31142297D01*
X7399500Y-31313385D01*
X2500500Y-31313385D01*
X2500500Y-28773385D01*
X7399500Y-28773385D01*
X7399500Y-28946614D01*
X7426597Y-29117702D01*
X7426598Y-29117706D01*
X7480123Y-29282438D01*
X7480125Y-29282441D01*
X7480126Y-29282444D01*
X7480127Y-29282445D01*
X7558768Y-29436788D01*
X7660586Y-29576928D01*
X7783072Y-29699414D01*
X7923212Y-29801232D01*
X8077555Y-29879873D01*
X8077557Y-29879873D01*
X8077558Y-29879874D01*
X8077561Y-29879876D01*
X8242293Y-29933401D01*
X8242297Y-29933402D01*
X8413386Y-29960500D01*
X8413389Y-29960500D01*
X8586614Y-29960500D01*
X8757702Y-29933402D01*
X8757706Y-29933401D01*
X8922438Y-29879876D01*
X8922440Y-29879874D01*
X8922445Y-29879873D01*
X9076788Y-29801232D01*
X9216928Y-29699414D01*
X9339414Y-29576928D01*
X9441232Y-29436788D01*
X9519873Y-29282445D01*
X9519874Y-29282440D01*
X9519876Y-29282438D01*
X9573401Y-29117706D01*
X9573402Y-29117702D01*
X9600500Y-28946614D01*
X9600500Y-28773385D01*
X30259500Y-28773385D01*
X30259500Y-28946614D01*
X30286597Y-29117702D01*
X30286598Y-29117706D01*
X30340123Y-29282438D01*
X30340125Y-29282441D01*
X30340126Y-29282444D01*
X30340127Y-29282445D01*
X30418768Y-29436788D01*
X30520586Y-29576928D01*
X30643072Y-29699414D01*
X30783212Y-29801232D01*
X30937555Y-29879873D01*
X30937557Y-29879873D01*
X30937558Y-29879874D01*
X30937561Y-29879876D01*
X31102293Y-29933401D01*
X31102297Y-29933402D01*
X31273386Y-29960500D01*
X31273389Y-29960500D01*
X31446614Y-29960500D01*
X31617702Y-29933402D01*
X31617706Y-29933401D01*
X31782438Y-29879876D01*
X31782440Y-29879874D01*
X31782445Y-29879873D01*
X31936788Y-29801232D01*
X32076928Y-29699414D01*
X32199414Y-29576928D01*
X32301232Y-29436788D01*
X32379873Y-29282445D01*
X32379874Y-29282440D01*
X32379876Y-29282438D01*
X32433401Y-29117706D01*
X32433402Y-29117702D01*
X32460500Y-28946614D01*
X32460500Y-28773385D01*
X32433402Y-28602297D01*
X32433401Y-28602293D01*
X32379876Y-28437561D01*
X32379874Y-28437558D01*
X32379873Y-28437557D01*
X32379873Y-28437555D01*
X32301232Y-28283212D01*
X32199414Y-28143072D01*
X32076928Y-28020586D01*
X31936788Y-27918768D01*
X31936787Y-27918767D01*
X31936785Y-27918766D01*
X31782441Y-27840125D01*
X31782438Y-27840123D01*
X31617706Y-27786598D01*
X31617702Y-27786597D01*
X31446614Y-27759500D01*
X31446611Y-27759500D01*
X31273389Y-27759500D01*
X31273386Y-27759500D01*
X31102297Y-27786597D01*
X31102293Y-27786598D01*
X30937561Y-27840123D01*
X30937558Y-27840125D01*
X30783214Y-27918766D01*
X30643073Y-28020585D01*
X30520585Y-28143073D01*
X30418766Y-28283214D01*
X30340125Y-28437558D01*
X30340123Y-28437561D01*
X30286598Y-28602293D01*
X30286597Y-28602297D01*
X30259500Y-28773385D01*
X9600500Y-28773385D01*
X9573402Y-28602297D01*
X9573401Y-28602293D01*
X9519876Y-28437561D01*
X9519874Y-28437558D01*
X9519873Y-28437557D01*
X9519873Y-28437555D01*
X9441232Y-28283212D01*
X9339414Y-28143072D01*
X9216928Y-28020586D01*
X9076788Y-27918768D01*
X9076787Y-27918767D01*
X9076785Y-27918766D01*
X8922441Y-27840125D01*
X8922438Y-27840123D01*
X8757706Y-27786598D01*
X8757702Y-27786597D01*
X8586614Y-27759500D01*
X8586611Y-27759500D01*
X8413389Y-27759500D01*
X8413386Y-27759500D01*
X8242297Y-27786597D01*
X8242293Y-27786598D01*
X8077561Y-27840123D01*
X8077558Y-27840125D01*
X7923214Y-27918766D01*
X7783073Y-28020585D01*
X7660585Y-28143073D01*
X7558766Y-28283214D01*
X7480125Y-28437558D01*
X7480123Y-28437561D01*
X7426598Y-28602293D01*
X7426597Y-28602297D01*
X7399500Y-28773385D01*
X2500500Y-28773385D01*
X2500500Y-26233385D01*
X7399500Y-26233385D01*
X7399500Y-26406614D01*
X7426597Y-26577702D01*
X7426598Y-26577706D01*
X7480123Y-26742438D01*
X7480125Y-26742441D01*
X7480126Y-26742444D01*
X7480127Y-26742445D01*
X7558768Y-26896788D01*
X7660586Y-27036928D01*
X7783072Y-27159414D01*
X7923212Y-27261232D01*
X8077555Y-27339873D01*
X8077557Y-27339873D01*
X8077558Y-27339874D01*
X8077561Y-27339876D01*
X8242293Y-27393401D01*
X8242297Y-27393402D01*
X8413386Y-27420500D01*
X8413389Y-27420500D01*
X8586614Y-27420500D01*
X8757702Y-27393402D01*
X8757706Y-27393401D01*
X8922438Y-27339876D01*
X8922440Y-27339874D01*
X8922445Y-27339873D01*
X9076788Y-27261232D01*
X9216928Y-27159414D01*
X9339414Y-27036928D01*
X9441232Y-26896788D01*
X9519873Y-26742445D01*
X9519874Y-26742440D01*
X9519876Y-26742438D01*
X9573401Y-26577706D01*
X9573402Y-26577702D01*
X9600500Y-26406614D01*
X9600500Y-26233385D01*
X30259500Y-26233385D01*
X30259500Y-26406614D01*
X30286597Y-26577702D01*
X30286598Y-26577706D01*
X30340123Y-26742438D01*
X30340125Y-26742441D01*
X30340126Y-26742444D01*
X30340127Y-26742445D01*
X30418768Y-26896788D01*
X30520586Y-27036928D01*
X30643072Y-27159414D01*
X30783212Y-27261232D01*
X30937555Y-27339873D01*
X30937557Y-27339873D01*
X30937558Y-27339874D01*
X30937561Y-27339876D01*
X31102293Y-27393401D01*
X31102297Y-27393402D01*
X31273386Y-27420500D01*
X31273389Y-27420500D01*
X31446614Y-27420500D01*
X31617702Y-27393402D01*
X31617706Y-27393401D01*
X31782438Y-27339876D01*
X31782440Y-27339874D01*
X31782445Y-27339873D01*
X31936788Y-27261232D01*
X32076928Y-27159414D01*
X32199414Y-27036928D01*
X32301232Y-26896788D01*
X32379873Y-26742445D01*
X32379874Y-26742440D01*
X32379876Y-26742438D01*
X32433401Y-26577706D01*
X32433402Y-26577702D01*
X32460500Y-26406614D01*
X32460500Y-26233385D01*
X32433402Y-26062297D01*
X32433401Y-26062293D01*
X32379876Y-25897561D01*
X32379874Y-25897558D01*
X32379873Y-25897557D01*
X32379873Y-25897555D01*
X32301232Y-25743212D01*
X32199414Y-25603072D01*
X32076928Y-25480586D01*
X31936788Y-25378768D01*
X31936787Y-25378767D01*
X31936785Y-25378766D01*
X31782441Y-25300125D01*
X31782438Y-25300123D01*
X31617706Y-25246598D01*
X31617702Y-25246597D01*
X31446614Y-25219500D01*
X31446611Y-25219500D01*
X31273389Y-25219500D01*
X31273386Y-25219500D01*
X31102297Y-25246597D01*
X31102293Y-25246598D01*
X30937561Y-25300123D01*
X30937558Y-25300125D01*
X30783214Y-25378766D01*
X30643073Y-25480585D01*
X30520585Y-25603073D01*
X30418766Y-25743214D01*
X30340125Y-25897558D01*
X30340123Y-25897561D01*
X30286598Y-26062293D01*
X30286597Y-26062297D01*
X30259500Y-26233385D01*
X9600500Y-26233385D01*
X9573402Y-26062297D01*
X9573401Y-26062293D01*
X9519876Y-25897561D01*
X9519874Y-25897558D01*
X9519873Y-25897557D01*
X9519873Y-25897555D01*
X9441232Y-25743212D01*
X9339414Y-25603072D01*
X9216928Y-25480586D01*
X9076788Y-25378768D01*
X9076787Y-25378767D01*
X9076785Y-25378766D01*
X8922441Y-25300125D01*
X8922438Y-25300123D01*
X8757706Y-25246598D01*
X8757702Y-25246597D01*
X8586614Y-25219500D01*
X8586611Y-25219500D01*
X8413389Y-25219500D01*
X8413386Y-25219500D01*
X8242297Y-25246597D01*
X8242293Y-25246598D01*
X8077561Y-25300123D01*
X8077558Y-25300125D01*
X7923214Y-25378766D01*
X7783073Y-25480585D01*
X7660585Y-25603073D01*
X7558766Y-25743214D01*
X7480125Y-25897558D01*
X7480123Y-25897561D01*
X7426598Y-26062293D01*
X7426597Y-26062297D01*
X7399500Y-26233385D01*
X2500500Y-26233385D01*
X2500500Y-23693385D01*
X7399500Y-23693385D01*
X7399500Y-23866614D01*
X7426597Y-24037702D01*
X7426598Y-24037706D01*
X7480123Y-24202438D01*
X7480125Y-24202441D01*
X7480126Y-24202444D01*
X7480127Y-24202445D01*
X7558768Y-24356788D01*
X7660586Y-24496928D01*
X7783072Y-24619414D01*
X7923212Y-24721232D01*
X8077555Y-24799873D01*
X8077557Y-24799873D01*
X8077558Y-24799874D01*
X8077561Y-24799876D01*
X8242293Y-24853401D01*
X8242297Y-24853402D01*
X8413386Y-24880500D01*
X8413389Y-24880500D01*
X8586614Y-24880500D01*
X8757702Y-24853402D01*
X8757706Y-24853401D01*
X8922438Y-24799876D01*
X8922440Y-24799874D01*
X8922445Y-24799873D01*
X9076788Y-24721232D01*
X9216928Y-24619414D01*
X9339414Y-24496928D01*
X9441232Y-24356788D01*
X9519873Y-24202445D01*
X9519874Y-24202440D01*
X9519876Y-24202438D01*
X9573401Y-24037706D01*
X9573402Y-24037702D01*
X9600500Y-23866614D01*
X9600500Y-23693385D01*
X30259500Y-23693385D01*
X30259500Y-23866614D01*
X30286597Y-24037702D01*
X30286598Y-24037706D01*
X30340123Y-24202438D01*
X30340125Y-24202441D01*
X30340126Y-24202444D01*
X30340127Y-24202445D01*
X30418768Y-24356788D01*
X30520586Y-24496928D01*
X30643072Y-24619414D01*
X30783212Y-24721232D01*
X30937555Y-24799873D01*
X30937557Y-24799873D01*
X30937558Y-24799874D01*
X30937561Y-24799876D01*
X31102293Y-24853401D01*
X31102297Y-24853402D01*
X31273386Y-24880500D01*
X31273389Y-24880500D01*
X31446614Y-24880500D01*
X31617702Y-24853402D01*
X31617706Y-24853401D01*
X31782438Y-24799876D01*
X31782440Y-24799874D01*
X31782445Y-24799873D01*
X31936788Y-24721232D01*
X32076928Y-24619414D01*
X32199414Y-24496928D01*
X32301232Y-24356788D01*
X32379873Y-24202445D01*
X32379874Y-24202440D01*
X32379876Y-24202438D01*
X32433401Y-24037706D01*
X32433402Y-24037702D01*
X32460500Y-23866614D01*
X32460500Y-23693385D01*
X32433402Y-23522297D01*
X32433401Y-23522293D01*
X32379876Y-23357561D01*
X32379874Y-23357558D01*
X32379873Y-23357557D01*
X32379873Y-23357555D01*
X32301232Y-23203212D01*
X32199414Y-23063072D01*
X32076928Y-22940586D01*
X31936788Y-22838768D01*
X31936787Y-22838767D01*
X31936785Y-22838766D01*
X31782441Y-22760125D01*
X31782438Y-22760123D01*
X31617706Y-22706598D01*
X31617702Y-22706597D01*
X31446614Y-22679500D01*
X31446611Y-22679500D01*
X31273389Y-22679500D01*
X31273386Y-22679500D01*
X31102297Y-22706597D01*
X31102293Y-22706598D01*
X30937561Y-22760123D01*
X30937558Y-22760125D01*
X30783214Y-22838766D01*
X30643073Y-22940585D01*
X30520585Y-23063073D01*
X30418766Y-23203214D01*
X30340125Y-23357558D01*
X30340123Y-23357561D01*
X30286598Y-23522293D01*
X30286597Y-23522297D01*
X30259500Y-23693385D01*
X9600500Y-23693385D01*
X9573402Y-23522297D01*
X9573401Y-23522293D01*
X9519876Y-23357561D01*
X9519874Y-23357558D01*
X9519873Y-23357557D01*
X9519873Y-23357555D01*
X9441232Y-23203212D01*
X9339414Y-23063072D01*
X9216928Y-22940586D01*
X9076788Y-22838768D01*
X9076787Y-22838767D01*
X9076785Y-22838766D01*
X8922441Y-22760125D01*
X8922438Y-22760123D01*
X8757706Y-22706598D01*
X8757702Y-22706597D01*
X8586614Y-22679500D01*
X8586611Y-22679500D01*
X8413389Y-22679500D01*
X8413386Y-22679500D01*
X8242297Y-22706597D01*
X8242293Y-22706598D01*
X8077561Y-22760123D01*
X8077558Y-22760125D01*
X7923214Y-22838766D01*
X7783073Y-22940585D01*
X7660585Y-23063073D01*
X7558766Y-23203214D01*
X7480125Y-23357558D01*
X7480123Y-23357561D01*
X7426598Y-23522293D01*
X7426597Y-23522297D01*
X7399500Y-23693385D01*
X2500500Y-23693385D01*
X2500500Y-21153385D01*
X7399500Y-21153385D01*
X7399500Y-21326614D01*
X7426597Y-21497702D01*
X7426598Y-21497706D01*
X7480123Y-21662438D01*
X7480125Y-21662441D01*
X7480126Y-21662444D01*
X7480127Y-21662445D01*
X7558768Y-21816788D01*
X7660586Y-21956928D01*
X7783072Y-22079414D01*
X7923212Y-22181232D01*
X8077555Y-22259873D01*
X8077557Y-22259873D01*
X8077558Y-22259874D01*
X8077561Y-22259876D01*
X8242293Y-22313401D01*
X8242297Y-22313402D01*
X8413386Y-22340500D01*
X8413389Y-22340500D01*
X8586614Y-22340500D01*
X8757702Y-22313402D01*
X8757706Y-22313401D01*
X8922438Y-22259876D01*
X8922440Y-22259874D01*
X8922445Y-22259873D01*
X9076788Y-22181232D01*
X9216928Y-22079414D01*
X9339414Y-21956928D01*
X9441232Y-21816788D01*
X9519873Y-21662445D01*
X9519874Y-21662440D01*
X9519876Y-21662438D01*
X9573401Y-21497706D01*
X9573402Y-21497702D01*
X9600500Y-21326614D01*
X9600500Y-21153385D01*
X30259500Y-21153385D01*
X30259500Y-21326614D01*
X30286597Y-21497702D01*
X30286598Y-21497706D01*
X30340123Y-21662438D01*
X30340125Y-21662441D01*
X30340126Y-21662444D01*
X30340127Y-21662445D01*
X30418768Y-21816788D01*
X30520586Y-21956928D01*
X30643072Y-22079414D01*
X30783212Y-22181232D01*
X30937555Y-22259873D01*
X30937557Y-22259873D01*
X30937558Y-22259874D01*
X30937561Y-22259876D01*
X31102293Y-22313401D01*
X31102297Y-22313402D01*
X31273386Y-22340500D01*
X31273389Y-22340500D01*
X31446614Y-22340500D01*
X31617702Y-22313402D01*
X31617706Y-22313401D01*
X31782438Y-22259876D01*
X31782440Y-22259874D01*
X31782445Y-22259873D01*
X31936788Y-22181232D01*
X32076928Y-22079414D01*
X32199414Y-21956928D01*
X32301232Y-21816788D01*
X32379873Y-21662445D01*
X32379874Y-21662440D01*
X32379876Y-21662438D01*
X32433401Y-21497706D01*
X32433402Y-21497702D01*
X32460500Y-21326614D01*
X32460500Y-21153385D01*
X32433402Y-20982297D01*
X32433401Y-20982293D01*
X32379876Y-20817561D01*
X32379874Y-20817558D01*
X32379873Y-20817557D01*
X32379873Y-20817555D01*
X32301232Y-20663212D01*
X32199414Y-20523072D01*
X32076928Y-20400586D01*
X31936788Y-20298768D01*
X31936787Y-20298767D01*
X31936785Y-20298766D01*
X31782441Y-20220125D01*
X31782438Y-20220123D01*
X31617706Y-20166598D01*
X31617702Y-20166597D01*
X31446614Y-20139500D01*
X31446611Y-20139500D01*
X31273389Y-20139500D01*
X31273386Y-20139500D01*
X31102297Y-20166597D01*
X31102293Y-20166598D01*
X30937561Y-20220123D01*
X30937558Y-20220125D01*
X30783214Y-20298766D01*
X30643073Y-20400585D01*
X30520585Y-20523073D01*
X30418766Y-20663214D01*
X30340125Y-20817558D01*
X30340123Y-20817561D01*
X30286598Y-20982293D01*
X30286597Y-20982297D01*
X30259500Y-21153385D01*
X9600500Y-21153385D01*
X9573402Y-20982297D01*
X9573401Y-20982293D01*
X9519876Y-20817561D01*
X9519874Y-20817558D01*
X9519873Y-20817557D01*
X9519873Y-20817555D01*
X9441232Y-20663212D01*
X9339414Y-20523072D01*
X9216928Y-20400586D01*
X9076788Y-20298768D01*
X9076787Y-20298767D01*
X9076785Y-20298766D01*
X8922441Y-20220125D01*
X8922438Y-20220123D01*
X8757706Y-20166598D01*
X8757702Y-20166597D01*
X8586614Y-20139500D01*
X8586611Y-20139500D01*
X8413389Y-20139500D01*
X8413386Y-20139500D01*
X8242297Y-20166597D01*
X8242293Y-20166598D01*
X8077561Y-20220123D01*
X8077558Y-20220125D01*
X7923214Y-20298766D01*
X7783073Y-20400585D01*
X7660585Y-20523073D01*
X7558766Y-20663214D01*
X7480125Y-20817558D01*
X7480123Y-20817561D01*
X7426598Y-20982293D01*
X7426597Y-20982297D01*
X7399500Y-21153385D01*
X2500500Y-21153385D01*
X2500500Y-18613385D01*
X7399500Y-18613385D01*
X7399500Y-18786614D01*
X7426597Y-18957702D01*
X7426598Y-18957706D01*
X7480123Y-19122438D01*
X7480125Y-19122441D01*
X7480126Y-19122444D01*
X7480127Y-19122445D01*
X7558768Y-19276788D01*
X7660586Y-19416928D01*
X7783072Y-19539414D01*
X7923212Y-19641232D01*
X8077555Y-19719873D01*
X8077557Y-19719873D01*
X8077558Y-19719874D01*
X8077561Y-19719876D01*
X8242293Y-19773401D01*
X8242297Y-19773402D01*
X8413386Y-19800500D01*
X8413389Y-19800500D01*
X8586614Y-19800500D01*
X8757702Y-19773402D01*
X8757706Y-19773401D01*
X8922438Y-19719876D01*
X8922440Y-19719874D01*
X8922445Y-19719873D01*
X9076788Y-19641232D01*
X9216928Y-19539414D01*
X9339414Y-19416928D01*
X9441232Y-19276788D01*
X9519873Y-19122445D01*
X9519874Y-19122440D01*
X9519876Y-19122438D01*
X9573401Y-18957706D01*
X9573402Y-18957702D01*
X9600500Y-18786614D01*
X9600500Y-18613385D01*
X30259500Y-18613385D01*
X30259500Y-18786614D01*
X30286597Y-18957702D01*
X30286598Y-18957706D01*
X30340123Y-19122438D01*
X30340125Y-19122441D01*
X30340126Y-19122444D01*
X30340127Y-19122445D01*
X30418768Y-19276788D01*
X30520586Y-19416928D01*
X30643072Y-19539414D01*
X30783212Y-19641232D01*
X30937555Y-19719873D01*
X30937557Y-19719873D01*
X30937558Y-19719874D01*
X30937561Y-19719876D01*
X31102293Y-19773401D01*
X31102297Y-19773402D01*
X31273386Y-19800500D01*
X31273389Y-19800500D01*
X31446614Y-19800500D01*
X31617702Y-19773402D01*
X31617706Y-19773401D01*
X31782438Y-19719876D01*
X31782440Y-19719874D01*
X31782445Y-19719873D01*
X31936788Y-19641232D01*
X32076928Y-19539414D01*
X32199414Y-19416928D01*
X32301232Y-19276788D01*
X32379873Y-19122445D01*
X32379874Y-19122440D01*
X32379876Y-19122438D01*
X32433401Y-18957706D01*
X32433402Y-18957702D01*
X32460500Y-18786614D01*
X32460500Y-18613385D01*
X32433402Y-18442297D01*
X32433401Y-18442293D01*
X32379876Y-18277561D01*
X32379874Y-18277558D01*
X32379873Y-18277557D01*
X32379873Y-18277555D01*
X32301232Y-18123212D01*
X32199414Y-17983072D01*
X32076928Y-17860586D01*
X31936788Y-17758768D01*
X31936787Y-17758767D01*
X31936785Y-17758766D01*
X31782441Y-17680125D01*
X31782438Y-17680123D01*
X31617706Y-17626598D01*
X31617702Y-17626597D01*
X31446614Y-17599500D01*
X31446611Y-17599500D01*
X31273389Y-17599500D01*
X31273386Y-17599500D01*
X31102297Y-17626597D01*
X31102293Y-17626598D01*
X30937561Y-17680123D01*
X30937558Y-17680125D01*
X30783214Y-17758766D01*
X30643073Y-17860585D01*
X30520585Y-17983073D01*
X30418766Y-18123214D01*
X30340125Y-18277558D01*
X30340123Y-18277561D01*
X30286598Y-18442293D01*
X30286597Y-18442297D01*
X30259500Y-18613385D01*
X9600500Y-18613385D01*
X9573402Y-18442297D01*
X9573401Y-18442293D01*
X9519876Y-18277561D01*
X9519874Y-18277558D01*
X9519873Y-18277557D01*
X9519873Y-18277555D01*
X9441232Y-18123212D01*
X9339414Y-17983072D01*
X9216928Y-17860586D01*
X9076788Y-17758768D01*
X9076787Y-17758767D01*
X9076785Y-17758766D01*
X8922441Y-17680125D01*
X8922438Y-17680123D01*
X8757706Y-17626598D01*
X8757702Y-17626597D01*
X8586614Y-17599500D01*
X8586611Y-17599500D01*
X8413389Y-17599500D01*
X8413386Y-17599500D01*
X8242297Y-17626597D01*
X8242293Y-17626598D01*
X8077561Y-17680123D01*
X8077558Y-17680125D01*
X7923214Y-17758766D01*
X7783073Y-17860585D01*
X7660585Y-17983073D01*
X7558766Y-18123214D01*
X7480125Y-18277558D01*
X7480123Y-18277561D01*
X7426598Y-18442293D01*
X7426597Y-18442297D01*
X7399500Y-18613385D01*
X2500500Y-18613385D01*
X2500500Y-16073385D01*
X7399500Y-16073385D01*
X7399500Y-16246614D01*
X7426597Y-16417702D01*
X7426598Y-16417706D01*
X7480123Y-16582438D01*
X7480125Y-16582441D01*
X7480126Y-16582444D01*
X7480127Y-16582445D01*
X7558768Y-16736788D01*
X7660586Y-16876928D01*
X7783072Y-16999414D01*
X7923212Y-17101232D01*
X8077555Y-17179873D01*
X8077557Y-17179873D01*
X8077558Y-17179874D01*
X8077561Y-17179876D01*
X8242293Y-17233401D01*
X8242297Y-17233402D01*
X8413386Y-17260500D01*
X8413389Y-17260500D01*
X8586614Y-17260500D01*
X8757702Y-17233402D01*
X8757706Y-17233401D01*
X8922438Y-17179876D01*
X8922440Y-17179874D01*
X8922445Y-17179873D01*
X9076788Y-17101232D01*
X9216928Y-16999414D01*
X9339414Y-16876928D01*
X9441232Y-16736788D01*
X9519873Y-16582445D01*
X9519874Y-16582440D01*
X9519876Y-16582438D01*
X9573401Y-16417706D01*
X9573402Y-16417702D01*
X9600500Y-16246614D01*
X9600500Y-16073385D01*
X30259500Y-16073385D01*
X30259500Y-16246614D01*
X30286597Y-16417702D01*
X30286598Y-16417706D01*
X30340123Y-16582438D01*
X30340125Y-16582441D01*
X30340126Y-16582444D01*
X30340127Y-16582445D01*
X30418768Y-16736788D01*
X30520586Y-16876928D01*
X30643072Y-16999414D01*
X30783212Y-17101232D01*
X30937555Y-17179873D01*
X30937557Y-17179873D01*
X30937558Y-17179874D01*
X30937561Y-17179876D01*
X31102293Y-17233401D01*
X31102297Y-17233402D01*
X31273386Y-17260500D01*
X31273389Y-17260500D01*
X31446614Y-17260500D01*
X31617702Y-17233402D01*
X31617706Y-17233401D01*
X31782438Y-17179876D01*
X31782440Y-17179874D01*
X31782445Y-17179873D01*
X31936788Y-17101232D01*
X32076928Y-16999414D01*
X32199414Y-16876928D01*
X32301232Y-16736788D01*
X32379873Y-16582445D01*
X32379874Y-16582440D01*
X32379876Y-16582438D01*
X32433401Y-16417706D01*
X32433402Y-16417702D01*
X32460500Y-16246614D01*
X32460500Y-16073385D01*
X32433402Y-15902297D01*
X32433401Y-15902293D01*
X32379876Y-15737561D01*
X32379874Y-15737558D01*
X32379873Y-15737557D01*
X32379873Y-15737555D01*
X32301232Y-15583212D01*
X32199414Y-15443072D01*
X32076928Y-15320586D01*
X31936788Y-15218768D01*
X31936787Y-15218767D01*
X31936785Y-15218766D01*
X31782441Y-15140125D01*
X31782438Y-15140123D01*
X31617706Y-15086598D01*
X31617702Y-15086597D01*
X31446614Y-15059500D01*
X31446611Y-15059500D01*
X31273389Y-15059500D01*
X31273386Y-15059500D01*
X31102297Y-15086597D01*
X31102293Y-15086598D01*
X30937561Y-15140123D01*
X30937558Y-15140125D01*
X30783214Y-15218766D01*
X30643073Y-15320585D01*
X30520585Y-15443073D01*
X30418766Y-15583214D01*
X30340125Y-15737558D01*
X30340123Y-15737561D01*
X30286598Y-15902293D01*
X30286597Y-15902297D01*
X30259500Y-16073385D01*
X9600500Y-16073385D01*
X9573402Y-15902297D01*
X9573401Y-15902293D01*
X9519876Y-15737561D01*
X9519874Y-15737558D01*
X9519873Y-15737557D01*
X9519873Y-15737555D01*
X9441232Y-15583212D01*
X9339414Y-15443072D01*
X9216928Y-15320586D01*
X9076788Y-15218768D01*
X9076787Y-15218767D01*
X9076785Y-15218766D01*
X8922441Y-15140125D01*
X8922438Y-15140123D01*
X8757706Y-15086598D01*
X8757702Y-15086597D01*
X8586614Y-15059500D01*
X8586611Y-15059500D01*
X8413389Y-15059500D01*
X8413386Y-15059500D01*
X8242297Y-15086597D01*
X8242293Y-15086598D01*
X8077561Y-15140123D01*
X8077558Y-15140125D01*
X7923214Y-15218766D01*
X7783073Y-15320585D01*
X7660585Y-15443073D01*
X7558766Y-15583214D01*
X7480125Y-15737558D01*
X7480123Y-15737561D01*
X7426598Y-15902293D01*
X7426597Y-15902297D01*
X7399500Y-16073385D01*
X2500500Y-16073385D01*
X2500500Y-13533385D01*
X7399500Y-13533385D01*
X7399500Y-13706614D01*
X7426597Y-13877702D01*
X7426598Y-13877706D01*
X7480123Y-14042438D01*
X7480125Y-14042441D01*
X7480126Y-14042444D01*
X7480127Y-14042445D01*
X7558768Y-14196788D01*
X7660586Y-14336928D01*
X7783072Y-14459414D01*
X7923212Y-14561232D01*
X8077555Y-14639873D01*
X8077557Y-14639873D01*
X8077558Y-14639874D01*
X8077561Y-14639876D01*
X8242293Y-14693401D01*
X8242297Y-14693402D01*
X8413386Y-14720500D01*
X8413389Y-14720500D01*
X8586614Y-14720500D01*
X8757702Y-14693402D01*
X8757706Y-14693401D01*
X8922438Y-14639876D01*
X8922440Y-14639874D01*
X8922445Y-14639873D01*
X9076788Y-14561232D01*
X9216928Y-14459414D01*
X9339414Y-14336928D01*
X9441232Y-14196788D01*
X9519873Y-14042445D01*
X9519874Y-14042440D01*
X9519876Y-14042438D01*
X9573401Y-13877706D01*
X9573402Y-13877702D01*
X9600500Y-13706614D01*
X9600500Y-13533385D01*
X30259500Y-13533385D01*
X30259500Y-13706614D01*
X30286597Y-13877702D01*
X30286598Y-13877706D01*
X30340123Y-14042438D01*
X30340125Y-14042441D01*
X30340126Y-14042444D01*
X30340127Y-14042445D01*
X30418768Y-14196788D01*
X30520586Y-14336928D01*
X30643072Y-14459414D01*
X30783212Y-14561232D01*
X30937555Y-14639873D01*
X30937557Y-14639873D01*
X30937558Y-14639874D01*
X30937561Y-14639876D01*
X31102293Y-14693401D01*
X31102297Y-14693402D01*
X31273386Y-14720500D01*
X31273389Y-14720500D01*
X31446614Y-14720500D01*
X31617702Y-14693402D01*
X31617706Y-14693401D01*
X31782438Y-14639876D01*
X31782440Y-14639874D01*
X31782445Y-14639873D01*
X31936788Y-14561232D01*
X32076928Y-14459414D01*
X32199414Y-14336928D01*
X32301232Y-14196788D01*
X32379873Y-14042445D01*
X32379874Y-14042440D01*
X32379876Y-14042438D01*
X32433401Y-13877706D01*
X32433402Y-13877702D01*
X32460500Y-13706614D01*
X32460500Y-13533385D01*
X32433402Y-13362297D01*
X32433401Y-13362293D01*
X32379876Y-13197561D01*
X32379874Y-13197558D01*
X32379873Y-13197557D01*
X32379873Y-13197555D01*
X32301232Y-13043212D01*
X32199414Y-12903072D01*
X32076928Y-12780586D01*
X31936788Y-12678768D01*
X31936787Y-12678767D01*
X31936785Y-12678766D01*
X31782441Y-12600125D01*
X31782438Y-12600123D01*
X31617706Y-12546598D01*
X31617702Y-12546597D01*
X31446614Y-12519500D01*
X31446611Y-12519500D01*
X31273389Y-12519500D01*
X31273386Y-12519500D01*
X31102297Y-12546597D01*
X31102293Y-12546598D01*
X30937561Y-12600123D01*
X30937558Y-12600125D01*
X30783214Y-12678766D01*
X30643073Y-12780585D01*
X30520585Y-12903073D01*
X30418766Y-13043214D01*
X30340125Y-13197558D01*
X30340123Y-13197561D01*
X30286598Y-13362293D01*
X30286597Y-13362297D01*
X30259500Y-13533385D01*
X9600500Y-13533385D01*
X9573402Y-13362297D01*
X9573401Y-13362293D01*
X9519876Y-13197561D01*
X9519874Y-13197558D01*
X9519873Y-13197557D01*
X9519873Y-13197555D01*
X9441232Y-13043212D01*
X9339414Y-12903072D01*
X9216928Y-12780586D01*
X9076788Y-12678768D01*
X9076787Y-12678767D01*
X9076785Y-12678766D01*
X8922441Y-12600125D01*
X8922438Y-12600123D01*
X8757706Y-12546598D01*
X8757702Y-12546597D01*
X8586614Y-12519500D01*
X8586611Y-12519500D01*
X8413389Y-12519500D01*
X8413386Y-12519500D01*
X8242297Y-12546597D01*
X8242293Y-12546598D01*
X8077561Y-12600123D01*
X8077558Y-12600125D01*
X7923214Y-12678766D01*
X7783073Y-12780585D01*
X7660585Y-12903073D01*
X7558766Y-13043214D01*
X7480125Y-13197558D01*
X7480123Y-13197561D01*
X7426598Y-13362293D01*
X7426597Y-13362297D01*
X7399500Y-13533385D01*
X2500500Y-13533385D01*
X2500500Y-10993385D01*
X7399500Y-10993385D01*
X7399500Y-11166614D01*
X7426597Y-11337702D01*
X7426598Y-11337706D01*
X7480123Y-11502438D01*
X7480125Y-11502441D01*
X7480126Y-11502444D01*
X7480127Y-11502445D01*
X7558768Y-11656788D01*
X7660586Y-11796928D01*
X7783072Y-11919414D01*
X7923212Y-12021232D01*
X8077555Y-12099873D01*
X8077557Y-12099873D01*
X8077558Y-12099874D01*
X8077561Y-12099876D01*
X8242293Y-12153401D01*
X8242297Y-12153402D01*
X8413386Y-12180500D01*
X8413389Y-12180500D01*
X8586614Y-12180500D01*
X8757702Y-12153402D01*
X8757706Y-12153401D01*
X8922438Y-12099876D01*
X8922440Y-12099874D01*
X8922445Y-12099873D01*
X9076788Y-12021232D01*
X9216928Y-11919414D01*
X9339414Y-11796928D01*
X9441232Y-11656788D01*
X9519873Y-11502445D01*
X9519874Y-11502440D01*
X9519876Y-11502438D01*
X9573401Y-11337706D01*
X9573402Y-11337702D01*
X9600500Y-11166614D01*
X9600500Y-10993385D01*
X30259500Y-10993385D01*
X30259500Y-11166614D01*
X30286597Y-11337702D01*
X30286598Y-11337706D01*
X30340123Y-11502438D01*
X30340125Y-11502441D01*
X30340126Y-11502444D01*
X30340127Y-11502445D01*
X30418768Y-11656788D01*
X30520586Y-11796928D01*
X30643072Y-11919414D01*
X30783212Y-12021232D01*
X30937555Y-12099873D01*
X30937557Y-12099873D01*
X30937558Y-12099874D01*
X30937561Y-12099876D01*
X31102293Y-12153401D01*
X31102297Y-12153402D01*
X31273386Y-12180500D01*
X31273389Y-12180500D01*
X31446614Y-12180500D01*
X31617702Y-12153402D01*
X31617706Y-12153401D01*
X31782438Y-12099876D01*
X31782440Y-12099874D01*
X31782445Y-12099873D01*
X31936788Y-12021232D01*
X32076928Y-11919414D01*
X32199414Y-11796928D01*
X32301232Y-11656788D01*
X32379873Y-11502445D01*
X32379874Y-11502440D01*
X32379876Y-11502438D01*
X32433401Y-11337706D01*
X32433402Y-11337702D01*
X32460500Y-11166614D01*
X32460500Y-10993385D01*
X32433402Y-10822297D01*
X32433401Y-10822293D01*
X32379876Y-10657561D01*
X32379874Y-10657558D01*
X32379873Y-10657557D01*
X32379873Y-10657555D01*
X32301232Y-10503212D01*
X32199414Y-10363072D01*
X32076928Y-10240586D01*
X31936788Y-10138768D01*
X31936787Y-10138767D01*
X31936785Y-10138766D01*
X31782441Y-10060125D01*
X31782438Y-10060123D01*
X31617706Y-10006598D01*
X31617702Y-10006597D01*
X31446614Y-9979500D01*
X31446611Y-9979500D01*
X31273389Y-9979500D01*
X31273386Y-9979500D01*
X31102297Y-10006597D01*
X31102293Y-10006598D01*
X30937561Y-10060123D01*
X30937558Y-10060125D01*
X30783214Y-10138766D01*
X30643073Y-10240585D01*
X30520585Y-10363073D01*
X30418766Y-10503214D01*
X30340125Y-10657558D01*
X30340123Y-10657561D01*
X30286598Y-10822293D01*
X30286597Y-10822297D01*
X30259500Y-10993385D01*
X9600500Y-10993385D01*
X9573402Y-10822297D01*
X9573401Y-10822293D01*
X9519876Y-10657561D01*
X9519874Y-10657558D01*
X9519873Y-10657557D01*
X9519873Y-10657555D01*
X9441232Y-10503212D01*
X9339414Y-10363072D01*
X9216928Y-10240586D01*
X9076788Y-10138768D01*
X9076787Y-10138767D01*
X9076785Y-10138766D01*
X8922441Y-10060125D01*
X8922438Y-10060123D01*
X8757706Y-10006598D01*
X8757702Y-10006597D01*
X8586614Y-9979500D01*
X8586611Y-9979500D01*
X8413389Y-9979500D01*
X8413386Y-9979500D01*
X8242297Y-10006597D01*
X8242293Y-10006598D01*
X8077561Y-10060123D01*
X8077558Y-10060125D01*
X7923214Y-10138766D01*
X7783073Y-10240585D01*
X7660585Y-10363073D01*
X7558766Y-10503214D01*
X7480125Y-10657558D01*
X7480123Y-10657561D01*
X7426598Y-10822293D01*
X7426597Y-10822297D01*
X7399500Y-10993385D01*
X2500500Y-10993385D01*
X2500500Y-8453385D01*
X7399500Y-8453385D01*
X7399500Y-8626614D01*
X7426597Y-8797702D01*
X7426598Y-8797706D01*
X7480123Y-8962438D01*
X7480125Y-8962441D01*
X7480126Y-8962444D01*
X7480127Y-8962445D01*
X7558768Y-9116788D01*
X7660586Y-9256928D01*
X7783072Y-9379414D01*
X7923212Y-9481232D01*
X8077555Y-9559873D01*
X8077557Y-9559873D01*
X8077558Y-9559874D01*
X8077561Y-9559876D01*
X8242293Y-9613401D01*
X8242297Y-9613402D01*
X8413386Y-9640500D01*
X8413389Y-9640500D01*
X8586614Y-9640500D01*
X8757702Y-9613402D01*
X8757706Y-9613401D01*
X8922438Y-9559876D01*
X8922440Y-9559874D01*
X8922445Y-9559873D01*
X9076788Y-9481232D01*
X9216928Y-9379414D01*
X9339414Y-9256928D01*
X9441232Y-9116788D01*
X9519873Y-8962445D01*
X9519874Y-8962440D01*
X9519876Y-8962438D01*
X9573401Y-8797706D01*
X9573402Y-8797702D01*
X9600500Y-8626614D01*
X9600500Y-8453385D01*
X30259500Y-8453385D01*
X30259500Y-8626614D01*
X30286597Y-8797702D01*
X30286598Y-8797706D01*
X30340123Y-8962438D01*
X30340125Y-8962441D01*
X30340126Y-8962444D01*
X30340127Y-8962445D01*
X30418768Y-9116788D01*
X30520586Y-9256928D01*
X30643072Y-9379414D01*
X30783212Y-9481232D01*
X30937555Y-9559873D01*
X30937557Y-9559873D01*
X30937558Y-9559874D01*
X30937561Y-9559876D01*
X31102293Y-9613401D01*
X31102297Y-9613402D01*
X31273386Y-9640500D01*
X31273389Y-9640500D01*
X31446614Y-9640500D01*
X31617702Y-9613402D01*
X31617706Y-9613401D01*
X31782438Y-9559876D01*
X31782440Y-9559874D01*
X31782445Y-9559873D01*
X31936788Y-9481232D01*
X32076928Y-9379414D01*
X32199414Y-9256928D01*
X32301232Y-9116788D01*
X32379873Y-8962445D01*
X32379874Y-8962440D01*
X32379876Y-8962438D01*
X32433401Y-8797706D01*
X32433402Y-8797702D01*
X32460500Y-8626614D01*
X32460500Y-8453385D01*
X32433402Y-8282297D01*
X32433401Y-8282293D01*
X32379876Y-8117561D01*
X32379874Y-8117558D01*
X32379873Y-8117557D01*
X32379873Y-8117555D01*
X32301232Y-7963212D01*
X32199414Y-7823072D01*
X32076928Y-7700586D01*
X31936788Y-7598768D01*
X31936787Y-7598767D01*
X31936785Y-7598766D01*
X31782441Y-7520125D01*
X31782438Y-7520123D01*
X31617706Y-7466598D01*
X31617702Y-7466597D01*
X31446614Y-7439500D01*
X31446611Y-7439500D01*
X31273389Y-7439500D01*
X31273386Y-7439500D01*
X31102297Y-7466597D01*
X31102293Y-7466598D01*
X30937561Y-7520123D01*
X30937558Y-7520125D01*
X30783214Y-7598766D01*
X30643073Y-7700585D01*
X30520585Y-7823073D01*
X30418766Y-7963214D01*
X30340125Y-8117558D01*
X30340123Y-8117561D01*
X30286598Y-8282293D01*
X30286597Y-8282297D01*
X30259500Y-8453385D01*
X9600500Y-8453385D01*
X9573402Y-8282297D01*
X9573401Y-8282293D01*
X9519876Y-8117561D01*
X9519874Y-8117558D01*
X9519873Y-8117557D01*
X9519873Y-8117555D01*
X9441232Y-7963212D01*
X9339414Y-7823072D01*
X9216928Y-7700586D01*
X9076788Y-7598768D01*
X9076787Y-7598767D01*
X9076785Y-7598766D01*
X8922441Y-7520125D01*
X8922438Y-7520123D01*
X8757706Y-7466598D01*
X8757702Y-7466597D01*
X8586614Y-7439500D01*
X8586611Y-7439500D01*
X8413389Y-7439500D01*
X8413386Y-7439500D01*
X8242297Y-7466597D01*
X8242293Y-7466598D01*
X8077561Y-7520123D01*
X8077558Y-7520125D01*
X7923214Y-7598766D01*
X7783073Y-7700585D01*
X7660585Y-7823073D01*
X7558766Y-7963214D01*
X7480125Y-8117558D01*
X7480123Y-8117561D01*
X7426598Y-8282293D01*
X7426597Y-8282297D01*
X7399500Y-8453385D01*
X2500500Y-8453385D01*
X2500500Y-5125327D01*
X7399500Y-5125327D01*
X7399500Y-6874672D01*
X7399501Y-6874684D01*
X7414033Y-6947736D01*
X7414035Y-6947742D01*
X7469397Y-7030599D01*
X7469399Y-7030601D01*
X7552260Y-7085966D01*
X7607808Y-7097015D01*
X7625315Y-7100498D01*
X7625320Y-7100498D01*
X7625326Y-7100500D01*
X7625327Y-7100500D01*
X9374673Y-7100500D01*
X9374674Y-7100500D01*
X9447740Y-7085966D01*
X9530601Y-7030601D01*
X9585966Y-6947740D01*
X9600500Y-6874674D01*
X9600500Y-5125327D01*
X30259500Y-5125327D01*
X30259500Y-6874672D01*
X30259501Y-6874684D01*
X30274033Y-6947736D01*
X30274035Y-6947742D01*
X30329397Y-7030599D01*
X30329399Y-7030601D01*
X30412260Y-7085966D01*
X30467808Y-7097015D01*
X30485315Y-7100498D01*
X30485320Y-7100498D01*
X30485326Y-7100500D01*
X30485327Y-7100500D01*
X32234673Y-7100500D01*
X32234674Y-7100500D01*
X32307740Y-7085966D01*
X32390601Y-7030601D01*
X32445966Y-6947740D01*
X32460500Y-6874674D01*
X32460500Y-5125326D01*
X32445966Y-5052260D01*
X32390601Y-4969399D01*
X32390599Y-4969397D01*
X32307742Y-4914035D01*
X32307740Y-4914034D01*
X32307737Y-4914033D01*
X32307736Y-4914033D01*
X32234684Y-4899501D01*
X32234674Y-4899500D01*
X30485326Y-4899500D01*
X30485325Y-4899500D01*
X30485315Y-4899501D01*
X30412263Y-4914033D01*
X30412257Y-4914035D01*
X30329400Y-4969397D01*
X30329397Y-4969400D01*
X30274035Y-5052257D01*
X30274033Y-5052263D01*
X30259501Y-5125315D01*
X30259500Y-5125327D01*
X9600500Y-5125327D01*
X9600500Y-5125326D01*
X9585966Y-5052260D01*
X9530601Y-4969399D01*
X9530599Y-4969397D01*
X9447742Y-4914035D01*
X9447740Y-4914034D01*
X9447737Y-4914033D01*
X9447736Y-4914033D01*
X9374684Y-4899501D01*
X9374674Y-4899500D01*
X7625326Y-4899500D01*
X7625325Y-4899500D01*
X7625315Y-4899501D01*
X7552263Y-4914033D01*
X7552257Y-4914035D01*
X7469400Y-4969397D01*
X7469397Y-4969400D01*
X7414035Y-5052257D01*
X7414033Y-5052263D01*
X7399501Y-5125315D01*
X7399500Y-5125327D01*
X2500500Y-5125327D01*
X2500500Y-2599500D01*
X2519407Y-2541309D01*
X2568907Y-2505345D01*
X2599500Y-2500500D01*
X55400500Y-2500500D01*
X55458691Y-2519407D01*
G37*
%TD.AperFunction*%
%TD*%
M02*
